<?xml version="1.0" encoding="utf-8"?>
<!-- Generator: Adobe Illustrator 24.1.0, SVG Export Plug-In . SVG Version: 6.00 Build 0)  -->
<svg version="1.1" xmlns="http://www.w3.org/2000/svg" xmlns:xlink="http://www.w3.org/1999/xlink" x="0px" y="0px"
	 viewBox="0 0 2059.6 1304.4" style="enable-background:new 0 0 2059.6 1304.4;" xml:space="preserve">
<style type="text/css">
	.st0{fill:#E9EFFE;}
	.st1{fill:#BDD0FB;}
	.st2{opacity:0.54;}
	.st3{opacity:0.8;}
	.st4{fill:#91B3FA;}
	.st5{opacity:0.5;fill:#FFFFFF;}
	.st6{fill:#DCE5FE;}
	.st7{fill:#7D97F4;}
	.st8{fill:url(#SVGID_1_);}
	.st9{fill:url(#SVGID_2_);}
	.st10{fill:url(#SVGID_3_);}
	.st11{fill:url(#SVGID_4_);}
	.st12{fill:url(#SVGID_5_);}
	.st13{fill:url(#SVGID_6_);}
	.st14{fill:url(#SVGID_7_);}
	.st15{fill:url(#SVGID_8_);}
	.st16{fill:url(#SVGID_9_);}
	.st17{fill:url(#SVGID_10_);}
	.st18{fill:url(#SVGID_11_);}
	.st19{fill:url(#SVGID_12_);}
	.st20{fill:url(#SVGID_13_);}
	.st21{fill:url(#SVGID_14_);}
	.st22{fill:url(#SVGID_15_);}
	.st23{fill:url(#SVGID_16_);}
	.st24{fill:url(#SVGID_17_);}
	.st25{fill:url(#SVGID_18_);}
	.st26{fill:url(#SVGID_19_);}
	.st27{fill:url(#SVGID_20_);}
	.st28{fill:url(#SVGID_21_);}
	.st29{fill:url(#SVGID_22_);}
	.st30{fill:url(#SVGID_23_);}
	.st31{fill:url(#SVGID_24_);}
	.st32{fill:url(#SVGID_25_);}
	.st33{fill:url(#SVGID_26_);}
	.st34{fill:url(#SVGID_27_);}
	.st35{fill:url(#SVGID_28_);}
	.st36{fill:url(#SVGID_29_);}
	.st37{fill:url(#SVGID_30_);}
	.st38{fill:url(#SVGID_31_);}
	.st39{fill:url(#SVGID_32_);}
	.st40{fill:url(#SVGID_33_);}
	.st41{fill:#5566FF;}
	.st42{fill:url(#SVGID_34_);}
	.st43{fill:url(#SVGID_35_);}
	.st44{fill:url(#SVGID_36_);}
	.st45{fill:url(#SVGID_37_);}
	.st46{fill:url(#SVGID_38_);}
	.st47{fill:url(#SVGID_39_);}
	.st48{fill:url(#SVGID_40_);}
	.st49{fill:url(#SVGID_41_);}
	.st50{fill:url(#SVGID_42_);}
	.st51{fill:url(#SVGID_43_);}
	.st52{fill:url(#SVGID_44_);}
	.st53{fill:url(#SVGID_45_);}
	.st54{fill:url(#SVGID_46_);}
	.st55{fill:url(#SVGID_47_);}
	.st56{fill:url(#SVGID_48_);}
	.st57{fill:url(#SVGID_49_);}
	.st58{fill:url(#SVGID_50_);}
	.st59{fill:url(#SVGID_51_);}
	.st60{fill:url(#SVGID_52_);}
	.st61{fill:url(#SVGID_53_);}
	.st62{fill:url(#SVGID_54_);}
	.st63{fill:url(#SVGID_55_);}
	.st64{fill:url(#SVGID_56_);}
	.st65{fill:url(#SVGID_57_);}
	.st66{fill:url(#SVGID_58_);}
	.st67{fill:url(#SVGID_59_);}
	.st68{fill:url(#SVGID_60_);}
	.st69{fill:#FFFFFF;}
	.st70{fill:url(#SVGID_61_);}
	.st71{fill:url(#SVGID_62_);}
	.st72{fill:url(#SVGID_63_);}
	.st73{fill:url(#SVGID_64_);}
	.st74{fill:url(#SVGID_65_);}
</style>
<g id="Background">
</g>
<g id="Illustration">
	<g>
		<path class="st0" d="M1287.6,84.4c-23.3,44.1,44.2,118.8,178.3,267.3c157.9,174.8,357.1,395.4,484.3,343.3
			c93.6-38.3,135.7-219.2,92.4-350.3C1939.4,32.5,1343.8-22.1,1287.6,84.4z"/>
		<path class="st0" d="M2022.3,1085.2c-9.6,136.7-626.5,208.2-1103.3,191.5c-396.9-13.9-598.2-24-738.9-180
			C2.4,899.7-25,552.1,134.5,322.3C351.3,10.1,815.9,57.5,1064.1,151.4c27.8,10.5,50.2,20.5,71.8,33.4
			c385.5,231.1,386.9,474,785.5,793.4C1990.9,1034.1,2024.6,1052.5,2022.3,1085.2z"/>
		<g>
			<path class="st1" d="M787.2,764.8c-0.4,0.1-0.9,0.1-1.3-0.1l-4.4-1.9c-1-0.4-1.4-1.5-1-2.5c0.4-1,1.5-1.4,2.5-1l4.4,1.9
				c1,0.4,1.4,1.5,1,2.5C788.1,764.3,787.7,764.7,787.2,764.8z M770.4,757.5c-0.4,0.1-0.9,0.1-1.4-0.1c-1.8-0.8-3.5-1.6-5.3-2.4
				c-1-0.4-1.4-1.6-1-2.5c0.4-1,1.6-1.4,2.5-1c1.8,0.8,3.5,1.6,5.3,2.4c1,0.4,1.4,1.6,1,2.5C771.4,757,770.9,757.4,770.4,757.5z
				 M753,749.5c-0.4,0.1-0.9,0.1-1.4-0.1c-1.7-0.8-3.5-1.6-5.2-2.5c-1-0.5-1.4-1.6-0.9-2.6c0.5-1,1.6-1.4,2.6-0.9
				c1.7,0.8,3.5,1.6,5.2,2.4c1,0.4,1.4,1.6,0.9,2.5C753.9,749,753.5,749.4,753,749.5z M735.7,741.2c-0.5,0.1-1,0.1-1.4-0.1
				c-1.7-0.8-3.5-1.7-5.2-2.6c-0.9-0.5-1.3-1.6-0.9-2.6c0.5-0.9,1.6-1.3,2.6-0.9c1.7,0.9,3.4,1.7,5.1,2.5c1,0.5,1.3,1.6,0.9,2.6
				C736.6,740.7,736.2,741.1,735.7,741.2z M718.5,732.6c-0.5,0.1-1,0.1-1.5-0.1c-1.7-0.9-3.4-1.8-5.1-2.7c-0.9-0.5-1.3-1.7-0.8-2.6
				c0.5-0.9,1.7-1.3,2.6-0.8c1.7,0.9,3.4,1.8,5.1,2.7c0.9,0.5,1.3,1.6,0.8,2.6C719.4,732.1,719,732.5,718.5,732.6z M701.6,723.6
				c-0.5,0.2-1,0.1-1.5-0.1c-1.7-0.9-3.4-1.8-5-2.8c-0.9-0.5-1.3-1.7-0.7-2.6c0.5-0.9,1.7-1.3,2.6-0.7c1.7,0.9,3.3,1.8,5,2.8
				c0.9,0.5,1.3,1.7,0.8,2.6C702.5,723.2,702.1,723.5,701.6,723.6z M684.9,714.2c-0.5,0.2-1.1,0.1-1.5-0.2c-1.7-1-3.3-1.9-5-2.9
				c-0.9-0.5-1.2-1.7-0.7-2.6c0.5-0.9,1.7-1.2,2.6-0.7c1.6,1,3.3,1.9,5,2.9c0.9,0.5,1.2,1.7,0.7,2.6
				C685.7,713.8,685.3,714.1,684.9,714.2z M668.4,704.4c-0.5,0.2-1.1,0.1-1.6-0.2c-1.6-1-3.3-2-4.9-3c-0.9-0.6-1.2-1.7-0.6-2.6
				c0.6-0.9,1.7-1.2,2.6-0.6c1.6,1,3.2,2,4.9,3c0.9,0.6,1.2,1.7,0.6,2.6C669.2,704,668.9,704.3,668.4,704.4z M652.2,694.1
				c-0.5,0.2-1.1,0.1-1.6-0.2c-1.6-1.1-3.2-2.1-4.8-3.2c-0.9-0.6-1.1-1.8-0.5-2.7c0.6-0.9,1.8-1.1,2.7-0.5c1.6,1.1,3.2,2.1,4.8,3.2
				c0.9,0.6,1.1,1.8,0.6,2.7C653,693.7,652.7,694,652.2,694.1z M636.4,683.4c-0.6,0.2-1.2,0.1-1.7-0.3c-1.6-1.1-3.1-2.2-4.7-3.3
				c-0.9-0.6-1.1-1.8-0.4-2.7c0.6-0.9,1.8-1.1,2.7-0.4c1.5,1.1,3.1,2.2,4.7,3.3c0.9,0.6,1.1,1.8,0.5,2.7
				C637.1,683,636.8,683.3,636.4,683.4z M620.9,672.1c-0.6,0.2-1.2,0.1-1.7-0.3c-1.5-1.2-3.1-2.3-4.6-3.5c-0.8-0.6-1-1.9-0.3-2.7
				c0.6-0.8,1.9-1,2.7-0.3c1.5,1.2,3,2.3,4.5,3.5c0.8,0.6,1,1.8,0.4,2.7C621.6,671.7,621.3,672,620.9,672.1z M605.9,660.2
				c-0.6,0.2-1.3,0.1-1.8-0.3c-1.5-1.2-3-2.5-4.4-3.7c-0.8-0.7-0.9-1.9-0.2-2.7c0.7-0.8,1.9-0.9,2.7-0.2c1.5,1.2,2.9,2.5,4.4,3.7
				c0.8,0.7,0.9,1.9,0.3,2.7C606.6,659.9,606.2,660.1,605.9,660.2z M591.4,647.7c-0.6,0.2-1.3,0.1-1.9-0.4c-1.4-1.3-2.9-2.6-4.3-3.9
				c-0.8-0.7-0.8-1.9-0.1-2.7c0.7-0.8,1.9-0.8,2.7-0.1c1.4,1.3,2.8,2.6,4.2,3.9c0.8,0.7,0.9,1.9,0.1,2.7
				C592,647.4,591.7,647.6,591.4,647.7z M577.4,634.5c-0.7,0.2-1.4,0.1-1.9-0.5c-1.4-1.4-2.7-2.7-4.1-4.1c-0.7-0.8-0.7-2,0-2.7
				c0.8-0.7,2-0.7,2.7,0c1.3,1.4,2.7,2.7,4,4.1c0.8,0.7,0.8,2,0,2.7C578,634.2,577.7,634.4,577.4,634.5z M564.2,620.6
				c-0.7,0.2-1.5,0-2-0.5c-1.3-1.4-2.6-2.9-3.8-4.3c-0.7-0.8-0.6-2,0.2-2.7c0.8-0.7,2-0.6,2.7,0.2c1.3,1.4,2.5,2.9,3.8,4.3
				c0.7,0.8,0.6,2-0.1,2.7C564.7,620.4,564.5,620.5,564.2,620.6z M551.8,606c-0.7,0.2-1.6,0-2.1-0.6c-1.2-1.5-2.4-3-3.6-4.6
				c-0.6-0.8-0.5-2,0.4-2.7c0.8-0.6,2-0.5,2.7,0.4c1.2,1.5,2.3,3,3.5,4.5c0.7,0.8,0.5,2-0.3,2.7C552.2,605.8,552,605.9,551.8,606z
				 M540.3,590.6c-0.8,0.2-1.7,0-2.2-0.7c-0.8-1.2-1.6-2.4-2.4-3.6c-1.1,0.5-2.2,0.9-3.4,1.4c-1,0.4-2.1-0.1-2.5-1.1
				c-0.4-1,0.1-2.1,1.1-2.5c1.8-0.7,3.5-1.4,5.3-2.2c1-0.4,2.1,0,2.5,1c0.2,0.4,0.2,0.8,0.1,1.2c0.8,1.2,1.6,2.4,2.5,3.6
				c0.6,0.9,0.4,2.1-0.5,2.7C540.7,590.5,540.5,590.6,540.3,590.6z M519.5,592C519.5,592,519.5,592,519.5,592
				c-1.9,0.5-3.8,1-5.7,1.5c-1,0.2-2.1-0.4-2.3-1.4c-0.2-1,0.4-2.1,1.4-2.3c1.8-0.4,3.7-0.9,5.5-1.4c1-0.3,2.1,0.3,2.4,1.3
				C521.1,590.6,520.5,591.7,519.5,592z M500.8,595.9c-0.1,0-0.2,0.1-0.3,0.1c-1.9,0.3-3.9,0.5-5.8,0.7c-1.1,0.1-2-0.7-2.1-1.7
				c-0.1-1.1,0.7-2,1.7-2.1c1.9-0.2,3.8-0.4,5.6-0.6c1.1-0.1,2,0.6,2.2,1.6C502.2,594.8,501.7,595.6,500.8,595.9z M549.6,579.6
				c-0.9,0.3-1.8-0.1-2.3-0.9c-0.5-0.9-0.2-2.1,0.8-2.6c1.7-0.9,3.3-1.8,5-2.8c0.9-0.5,2.1-0.2,2.6,0.7c0.5,0.9,0.2,2.1-0.7,2.6
				c-1.7,1-3.4,1.9-5.1,2.8C549.9,579.6,549.8,579.6,549.6,579.6z M481.7,597.1c-0.2,0.1-0.4,0.1-0.6,0.1l-1.3,0
				c-1.5,0-3-0.1-4.5-0.2c-1.1-0.1-1.9-1-1.8-2c0.1-1.1,1-1.9,2-1.8c1.5,0.1,2.9,0.2,4.4,0.2l1.3,0c1.1,0,1.9,0.9,1.9,2
				C483,596.1,482.4,596.8,481.7,597.1z M566,569.6c-0.8,0.2-1.7,0-2.2-0.7c-0.6-0.9-0.4-2.1,0.5-2.7c1.6-1.1,3.1-2.2,4.6-3.3
				c0.8-0.6,2.1-0.5,2.7,0.4c0.6,0.9,0.5,2.1-0.4,2.7c-1.6,1.2-3.1,2.3-4.7,3.4C566.3,569.5,566.2,569.6,566,569.6z M530,574.4
				c-0.8,0.3-1.8-0.1-2.2-0.9c-1-1.7-1.9-3.4-2.8-5.1c-0.5-0.9-0.2-2.1,0.8-2.6c0.9-0.5,2.1-0.2,2.6,0.8c0.9,1.7,1.8,3.3,2.8,5
				c0.5,0.9,0.2,2.1-0.7,2.6C530.3,574.3,530.2,574.4,530,574.4z M581.2,557.9c-0.7,0.2-1.5,0-2-0.6c-0.7-0.8-0.6-2,0.2-2.7
				c1.4-1.2,2.9-2.5,4.3-3.8c0.8-0.7,2-0.7,2.7,0.1c0.7,0.8,0.7,2-0.1,2.7c-1.4,1.3-2.9,2.6-4.4,3.9
				C581.6,557.7,581.4,557.8,581.2,557.9z M462.6,595.2c-0.3,0.1-0.6,0.1-0.9,0.1c-1.9-0.3-3.8-0.7-5.7-1.2c-1-0.2-1.7-1.3-1.4-2.3
				c0.2-1,1.3-1.7,2.3-1.4c1.8,0.4,3.7,0.8,5.5,1.1c1,0.2,1.7,1.2,1.6,2.2C463.8,594.4,463.3,595,462.6,595.2z M595.1,544.7
				c-0.6,0.2-1.4,0.1-1.9-0.4c-0.8-0.7-0.8-1.9-0.1-2.7c1.3-1.4,2.6-2.8,3.9-4.2c0.7-0.8,1.9-0.9,2.7-0.1c0.8,0.7,0.9,1.9,0.1,2.7
				c-1.3,1.4-2.6,2.9-4,4.3C595.6,544.5,595.4,544.6,595.1,544.7z M444.1,590.4c-0.4,0.1-0.8,0.1-1.2,0c-1.8-0.6-3.7-1.3-5.5-2
				c-1-0.4-1.5-1.5-1.1-2.5c0.4-1,1.5-1.5,2.5-1.1c1.8,0.7,3.5,1.3,5.3,1.9c1,0.3,1.5,1.4,1.2,2.4
				C445.1,589.8,444.6,590.2,444.1,590.4z M521.2,557.4c-0.9,0.3-1.9-0.1-2.3-1c-0.8-1.8-1.6-3.5-2.4-5.3c-0.4-1,0-2.1,1-2.5
				c1-0.4,2.1,0,2.5,1c0.7,1.7,1.5,3.5,2.3,5.2c0.4,1,0,2.1-0.9,2.5C521.3,557.4,521.3,557.4,521.2,557.4z M607.6,530.2
				c-0.6,0.2-1.2,0.1-1.8-0.3c-0.8-0.7-1-1.9-0.3-2.7c1.2-1.5,2.3-3,3.5-4.5c0.6-0.9,1.8-1,2.7-0.4c0.9,0.6,1,1.8,0.4,2.7
				c-1.1,1.6-2.3,3.1-3.5,4.6C608.3,529.9,608,530.1,607.6,530.2z M426.4,582.9c-0.5,0.1-1,0.1-1.4-0.1c-1.7-0.9-3.4-1.8-5.1-2.8
				c-0.9-0.5-1.3-1.7-0.7-2.6c0.5-0.9,1.7-1.3,2.6-0.7c1.7,0.9,3.3,1.8,5,2.7c0.9,0.5,1.3,1.6,0.8,2.6
				C427.3,582.4,426.9,582.8,426.4,582.9z M618.7,514.6c-0.5,0.2-1.1,0.1-1.6-0.2c-0.9-0.6-1.2-1.8-0.6-2.6c1-1.6,2-3.2,3-4.9
				c0.5-0.9,1.7-1.2,2.6-0.7c0.9,0.5,1.2,1.7,0.7,2.6c-1,1.7-2,3.3-3,5C619.5,514.2,619.1,514.4,618.7,514.6z M410,573.1
				c-0.5,0.2-1.2,0.1-1.7-0.3c-1.6-1.1-3.2-2.2-4.7-3.4c-0.8-0.6-1-1.8-0.4-2.7c0.6-0.9,1.8-1,2.7-0.4c1.5,1.1,3.1,2.2,4.6,3.3
				c0.9,0.6,1.1,1.8,0.5,2.7C410.7,572.7,410.4,573,410,573.1z M514.1,539.6c-1,0.3-2.1-0.2-2.4-1.2c-0.4-1.2-0.8-2.5-1.2-3.8
				c-0.2-0.6-0.4-1.2-0.6-1.8c-0.3-1,0.3-2.1,1.3-2.4c0,0,0,0,0,0c1-0.3,2.1,0.3,2.4,1.3c0.2,0.6,0.4,1.2,0.5,1.7
				c0.4,1.2,0.8,2.5,1.2,3.7C515.6,538.2,515.1,539.3,514.1,539.6C514.1,539.6,514.1,539.6,514.1,539.6z M628,497.8
				c-0.4,0.1-0.9,0.1-1.4-0.1c-1-0.5-1.4-1.6-0.9-2.6c0.8-1.7,1.6-3.4,2.3-5.2c0.4-1,1.5-1.4,2.5-1c1,0.4,1.4,1.5,1,2.5
				c-0.8,1.8-1.6,3.6-2.4,5.3C628.9,497.3,628.5,497.7,628,497.8z M394.9,561.2c-0.6,0.2-1.3,0.1-1.9-0.4c-1.5-1.3-2.9-2.6-4.3-4
				c-0.8-0.7-0.8-1.9-0.1-2.7c0.7-0.8,1.9-0.8,2.7-0.1c1.4,1.3,2.8,2.6,4.2,3.9c0.8,0.7,0.9,1.9,0.2,2.7
				C395.5,560.9,395.2,561.1,394.9,561.2z M509,521.2c-0.1,0-0.1,0-0.2,0c-1,0.2-2.1-0.4-2.3-1.5c-0.4-1.9-0.8-3.8-1.1-5.7
				c-0.2-1,0.5-2,1.6-2.2c1-0.2,2,0.5,2.2,1.6c0.3,1.9,0.7,3.7,1.1,5.6C510.5,519.9,509.9,520.9,509,521.2z M634.9,480
				c-0.4,0.1-0.7,0.1-1.1,0c-1-0.3-1.6-1.4-1.3-2.4c0.5-1.8,1-3.7,1.5-5.5c0.2-1,1.3-1.7,2.3-1.4c1,0.2,1.7,1.3,1.4,2.3
				c-0.4,1.9-1,3.8-1.5,5.7C636,479.3,635.5,479.8,634.9,480z M381.3,547.7c-0.7,0.2-1.5,0-2-0.6c-1.3-1.4-2.6-2.9-3.8-4.4
				c-0.7-0.8-0.6-2,0.2-2.7c0.8-0.7,2-0.6,2.7,0.2c1.2,1.5,2.5,2.9,3.7,4.3c0.7,0.8,0.6,2-0.2,2.7
				C381.8,547.5,381.6,547.6,381.3,547.7z M638.6,461.2c-0.2,0.1-0.5,0.1-0.7,0.1c-1.1-0.1-1.8-1-1.7-2.1c0.2-1.9,0.3-3.8,0.3-5.6
				c0-1.1,0.9-1.9,2-1.9c1.1,0,1.9,0.9,1.9,2c0,1.9-0.2,3.9-0.3,5.9C639.9,460.3,639.3,460.9,638.6,461.2z M506.2,502.2
				c-0.1,0-0.3,0.1-0.4,0.1c-1.1,0.1-2-0.7-2.1-1.8c-0.2-1.9-0.3-3.9-0.3-5.8c0-1.1,0.8-2,1.8-2c1.1,0,1.9,0.8,2,1.8
				c0.1,1.9,0.2,3.8,0.3,5.7C507.6,501.1,507.1,501.9,506.2,502.2z M369.4,532.6c-0.8,0.2-1.6,0-2.1-0.7c-1.1-1.6-2.2-3.2-3.3-4.8
				c-0.6-0.9-0.3-2.1,0.5-2.7c0.9-0.6,2.1-0.3,2.7,0.5c1,1.6,2.1,3.2,3.2,4.7c0.6,0.9,0.4,2.1-0.5,2.7
				C369.8,532.5,369.6,532.6,369.4,532.6z M638.1,442c-0.1,0-0.2,0.1-0.3,0.1c-1,0.2-2-0.5-2.2-1.6c-0.3-1.8-0.7-3.7-1.1-5.5
				c-0.3-1,0.4-2.1,1.4-2.3c1-0.3,2.1,0.4,2.3,1.4c0.5,1.9,0.9,3.9,1.2,5.8C639.6,440.9,639,441.8,638.1,442z M506,483
				c-0.2,0.1-0.4,0.1-0.7,0.1c-1.1-0.1-1.9-1-1.8-2c0.1-1.9,0.3-3.9,0.5-5.8c0.1-1.1,1-1.8,2.1-1.7c1.1,0.1,1.8,1,1.7,2.1
				c-0.2,1.9-0.3,3.8-0.4,5.7C507.3,482.1,506.8,482.8,506,483z M359.2,516.4c-0.9,0.3-1.8-0.1-2.3-0.9c-0.9-1.7-1.8-3.4-2.7-5.1
				c-0.5-0.9-0.1-2.1,0.8-2.6c0.9-0.5,2.1-0.1,2.6,0.8c0.9,1.7,1.7,3.4,2.7,5c0.5,0.9,0.2,2.1-0.8,2.6
				C359.5,516.3,359.3,516.4,359.2,516.4z M508.5,464c-0.3,0.1-0.6,0.1-1,0c-1-0.2-1.7-1.2-1.5-2.3c0.4-1.9,0.8-3.8,1.3-5.7
				c0.3-1,1.3-1.6,2.3-1.4c1,0.3,1.6,1.3,1.4,2.3c-0.5,1.8-0.9,3.7-1.3,5.5C509.6,463.3,509.1,463.8,508.5,464z M632.6,423.7
				c-0.9,0.3-1.9-0.1-2.3-1c-0.8-1.7-1.6-3.4-2.5-5c-0.5-0.9-0.2-2.1,0.7-2.6c0.9-0.5,2.1-0.2,2.6,0.7c0.9,1.7,1.8,3.5,2.7,5.3
				c0.4,1,0,2.1-1,2.5C632.7,423.7,632.7,423.7,632.6,423.7z M350.9,499.1c-0.9,0.3-2-0.2-2.3-1.1c-0.7-1.8-1.4-3.6-2.1-5.4
				c-0.4-1,0.1-2.1,1.1-2.5c1-0.4,2.1,0.1,2.5,1.1c0.7,1.8,1.4,3.5,2.1,5.3c0.4,1-0.1,2.1-1,2.5C351,499.1,351,499.1,350.9,499.1z
				 M513.8,445.6c-0.4,0.1-0.8,0.1-1.3,0c-1-0.4-1.5-1.5-1.1-2.5c0.7-1.8,1.4-3.6,2.2-5.4c0.4-1,1.6-1.4,2.5-1c1,0.4,1.4,1.6,1,2.5
				c-0.8,1.7-1.5,3.5-2.1,5.2C514.8,445,514.4,445.5,513.8,445.6z M622.4,407.6c-0.7,0.2-1.5,0-2-0.6c-1.2-1.4-2.5-2.8-3.8-4.1
				c-0.8-0.7-0.8-1.9,0-2.7c0.7-0.8,1.9-0.8,2.7,0c1.4,1.4,2.8,2.8,4.1,4.3c0.7,0.8,0.6,2-0.2,2.7
				C622.9,407.4,622.6,407.5,622.4,407.6z M522.1,428.4c-0.5,0.2-1.1,0.1-1.6-0.2c-0.9-0.5-1.2-1.7-0.7-2.6c1-1.7,2.1-3.3,3.2-4.9
				c0.6-0.9,1.8-1.1,2.7-0.5c0.9,0.6,1.1,1.8,0.5,2.7c-1,1.5-2.1,3.2-3,4.8C523,428,522.6,428.2,522.1,428.4z M344.7,481
				C344.6,481,344.6,481,344.7,481c-1.1,0.3-2.1-0.3-2.4-1.3c-0.5-1.9-1-3.7-1.5-5.6c-0.3-1,0.4-2.1,1.4-2.3c1-0.3,2.1,0.4,2.3,1.4
				c0.4,1.8,0.9,3.7,1.4,5.5C346.2,479.7,345.6,480.7,344.7,481z M607.8,395.3c-0.5,0.2-1,0.1-1.5-0.2c-1.6-0.9-3.3-1.8-4.9-2.5
				c-1-0.4-1.4-1.5-1-2.5c0.4-1,1.5-1.4,2.5-1c1.8,0.8,3.6,1.7,5.3,2.7c0.9,0.5,1.2,1.7,0.7,2.6
				C608.6,394.9,608.2,395.2,607.8,395.3z M533.6,413c-0.6,0.2-1.4,0.1-1.9-0.4c-0.8-0.7-0.8-1.9-0.1-2.7c1.3-1.4,2.7-2.8,4.1-4.2
				c0.8-0.7,2-0.7,2.7,0.1c0.7,0.8,0.7,2-0.1,2.7c-1.4,1.3-2.7,2.6-4,4C534.2,412.7,533.9,412.9,533.6,413z M589.7,389.2
				c-0.3,0.1-0.5,0.1-0.8,0.1c-1.8-0.2-3.7-0.4-5.5-0.4c-1.1,0-1.9-0.9-1.9-1.9c0-1.1,0.9-1.9,1.9-1.9c2,0,4,0.2,6,0.4
				c1.1,0.1,1.8,1.1,1.7,2.1C590.9,388.4,590.4,389,589.7,389.2z M548.1,400.5c-0.8,0.2-1.7,0-2.2-0.8c-0.6-0.9-0.4-2.1,0.5-2.7
				c1.6-1.1,3.3-2.2,5-3.1c0.9-0.5,2.1-0.2,2.6,0.7c0.5,0.9,0.2,2.1-0.7,2.6c-1.6,0.9-3.2,1.9-4.8,3
				C548.4,400.4,548.2,400.5,548.1,400.5z M570.7,390.3c0,0-0.1,0-0.1,0c-1.8,0.4-3.6,0.9-5.4,1.5c-1,0.3-2.1-0.2-2.4-1.2
				c-0.3-1,0.2-2.1,1.2-2.4c1.9-0.6,3.8-1.2,5.7-1.6c1-0.2,2.1,0.4,2.3,1.4C572.2,389,571.6,390,570.7,390.3z M340.5,462.3
				c-0.1,0-0.2,0-0.3,0.1c-1,0.2-2-0.5-2.2-1.6c-0.3-1.9-0.6-3.8-0.9-5.7c-0.1-1,0.6-2,1.6-2.2c1.1-0.1,2,0.6,2.2,1.6
				c0.3,1.9,0.5,3.8,0.9,5.6C342,461.1,341.4,462,340.5,462.3z M338.3,443.3c-0.1,0-0.3,0.1-0.4,0.1c-1.1,0.1-2-0.7-2-1.8
				c-0.1-1.9-0.2-3.9-0.3-5.8c0-1.1,0.8-1.9,1.8-2c1.1,0,2,0.8,2,1.8c0.1,1.9,0.2,3.8,0.3,5.7C339.7,442.2,339.1,443,338.3,443.3z
				 M337.9,424.1c-0.2,0.1-0.4,0.1-0.6,0.1c-1.1,0-1.9-0.9-1.9-2c0-1.9,0.1-3.9,0.2-5.8c0.1-1.1,1-1.9,2-1.8c1.1,0.1,1.9,1,1.8,2
				c-0.1,1.9-0.2,3.8-0.2,5.7C339.2,423.2,338.6,423.9,337.9,424.1z M339.2,405c-0.2,0.1-0.5,0.1-0.8,0.1c-1.1-0.1-1.8-1.1-1.7-2.1
				c0.2-1.9,0.4-3.8,0.7-5.8c0.1-1,1.1-1.8,2.2-1.6c1,0.1,1.8,1.1,1.6,2.2c-0.3,1.9-0.5,3.8-0.7,5.7
				C340.4,404.1,339.9,404.7,339.2,405z M342,386c-0.3,0.1-0.6,0.1-0.9,0.1c-1-0.2-1.7-1.2-1.5-2.2c0.4-1.9,0.8-3.8,1.2-5.7
				c0.2-1,1.2-1.7,2.3-1.5c1,0.2,1.7,1.2,1.5,2.3c-0.4,1.9-0.8,3.7-1.1,5.6C343.2,385.3,342.7,385.8,342,386z M346.4,367.3
				c-0.3,0.1-0.7,0.1-1.1,0c-1-0.3-1.6-1.3-1.4-2.4c0.5-1.9,1-3.7,1.6-5.6c0.3-1,1.4-1.6,2.4-1.3c1,0.3,1.6,1.4,1.3,2.4
				c-0.5,1.8-1.1,3.7-1.5,5.5C347.5,366.6,347,367.1,346.4,367.3z M352,349c-0.4,0.1-0.8,0.1-1.2,0c-1-0.3-1.5-1.4-1.2-2.4
				c0.6-1.8,1.3-3.6,1.9-5.5c0.4-1,1.5-1.5,2.5-1.1c1,0.4,1.5,1.5,1.1,2.5c-0.7,1.8-1.3,3.6-1.9,5.4
				C353.1,348.4,352.6,348.8,352,349z M358.9,331.1c-0.4,0.1-0.9,0.1-1.3-0.1c-1-0.4-1.4-1.5-1-2.5c0.7-1.8,1.5-3.6,2.3-5.3
				c0.4-1,1.6-1.4,2.5-1c1,0.4,1.4,1.6,1,2.5c-0.8,1.7-1.5,3.5-2.3,5.3C359.8,330.5,359.4,330.9,358.9,331.1z"/>
		</g>
		<g>
			<path class="st1" d="M675.4,1183.5c-6.8,6.8-18.3,4.5-22.1-4.3c-20.7-48.9-66.9-192.5,19-354.6c72.5-136.9,98.9-218,108.3-255.6
				c2-8,13-8.8,16.1-1.2C831.3,651.5,920.9,935.5,675.4,1183.5z"/>
		</g>
		<g>
			<g class="st2">
				<path class="st1" d="M1832.4,833.6l-215.4-1.2c-8.8,0-14.3,9.6-9.8,17.1l1.1,1.8c2,3.4,5.7,5.5,9.7,5.5h214.3
					c6.2,0,11.3-5.1,11.3-11.3v-0.6C1843.7,838.7,1838.6,833.6,1832.4,833.6z"/>
				<path class="st1" d="M1862.5,845.2v0.4c0,6.2,5.1,11.3,11.3,11.3h47.8c5.1,0,9.6-3.4,10.9-8.4v0c1.9-7.1-3.4-14.2-10.8-14.2
					l-47.8-0.4C1867.6,833.8,1862.5,838.9,1862.5,845.2z"/>
			</g>
			<g class="st2">
				<path class="st1" d="M1780.6,874.2L1617,873c-8.8,0-14.3,9.6-9.8,17.1l1.1,1.8c2,3.4,5.7,5.5,9.7,5.5h162.5
					c6.2,0,11.3-5.1,11.3-11.3v-0.6C1791.8,879.3,1786.8,874.2,1780.6,874.2z"/>
				<path class="st1" d="M1810.7,885.8v0.4c0,6.2,5.1,11.3,11.3,11.3h47.8c5.1,0,9.6-3.4,10.9-8.4l0,0c1.9-7.1-3.4-14.2-10.8-14.2
					l-47.8-0.4C1815.8,874.4,1810.7,879.5,1810.7,885.8z"/>
			</g>
		</g>
		<g class="st3">
			<g>
				<g>
					<path class="st4" d="M1703.4,825.4c-0.4,0-0.8-0.2-1.1-0.4c-2.2-1.6-4.4-3.3-6.5-5c-0.9-0.7-1-2-0.3-2.9c0.7-0.9,2-1,2.9-0.3
						c2.1,1.7,4.2,3.3,6.4,4.9c0.9,0.7,1.1,1.9,0.4,2.8C1704.8,825.1,1704.1,825.4,1703.4,825.4z"/>
					<path class="st4" d="M1676.8,802c-0.5,0-1-0.2-1.3-0.6c-3.9-4-7.7-8.3-11.3-12.7c-0.7-0.9-0.6-2.1,0.3-2.9
						c0.9-0.7,2.1-0.6,2.9,0.3c3.5,4.3,7.3,8.5,11.1,12.4c0.8,0.8,0.8,2.1,0,2.9C1677.9,801.9,1677.3,802.1,1676.8,802z
						 M1649.6,767.3c-0.6,0-1.2-0.4-1.6-0.9c-3-4.8-5.9-9.7-8.5-14.7c-0.5-1-0.1-2.2,0.8-2.8c1-0.5,2.2-0.1,2.8,0.8
						c2.6,4.9,5.4,9.7,8.4,14.4c0.6,0.9,0.3,2.2-0.6,2.8C1650.4,767.3,1650,767.4,1649.6,767.3z M1629.9,727.9
						c-0.8,0-1.5-0.5-1.8-1.3c-2-5.3-3.8-10.7-5.3-16.1c-0.3-1.1,0.3-2.2,1.4-2.5c1.1-0.3,2.2,0.3,2.5,1.4
						c1.5,5.3,3.3,10.6,5.2,15.8c0.4,1.1-0.1,2.2-1.2,2.6C1630.5,727.9,1630.2,727.9,1629.9,727.9z M1618.7,685.2
						c-0.9-0.1-1.7-0.8-1.9-1.7c-0.9-5.6-1.5-11.2-1.9-16.9c-0.1-1.1,0.8-2.1,1.9-2.2c1.1-0.1,2.1,0.8,2.2,1.9
						c0.4,5.5,1,11.1,1.9,16.6c0.2,1.1-0.6,2.1-1.7,2.3C1619,685.2,1618.9,685.2,1618.7,685.2z M1616.5,641.2c-1.1-0.1-2-1-1.9-2.1
						l0.1-1.9c0.3-5,0.8-10,1.5-15c0.1-1.1,1.1-1.9,2.3-1.8c1.1,0.1,1.9,1.2,1.8,2.3c-0.6,4.9-1.1,9.8-1.4,14.7l-0.1,1.9
						C1618.6,640.4,1617.7,641.3,1616.5,641.2C1616.6,641.2,1616.5,641.2,1616.5,641.2z M1623.4,597.7c-0.1,0-0.3,0-0.4-0.1
						c-1.1-0.3-1.7-1.4-1.5-2.5c1.4-5.4,3.1-10.9,5-16.2c0.4-1.1,1.5-1.6,2.6-1.3c1.1,0.4,1.6,1.5,1.3,2.6
						c-1.8,5.2-3.5,10.6-4.9,15.9C1625.2,597.1,1624.3,597.7,1623.4,597.7z M1638.9,556.4c-0.3,0-0.5-0.1-0.8-0.2
						c-1-0.5-1.4-1.7-0.9-2.7c2.5-5,5.3-10.1,8.2-14.9c0.6-1,1.8-1.3,2.8-0.7c1,0.6,1.3,1.8,0.7,2.8c-2.8,4.7-5.5,9.7-8,14.6
						C1640.4,556,1639.7,556.4,1638.9,556.4z M1662.5,519.2c-0.4,0-0.8-0.2-1.1-0.4c-0.9-0.7-1-2-0.3-2.9c3.5-4.4,7.2-8.8,11-12.9
						c0.8-0.8,2.1-0.9,2.9-0.1c0.8,0.8,0.9,2.1,0.1,2.9c-3.8,4.1-7.4,8.3-10.8,12.6C1663.8,519,1663.1,519.2,1662.5,519.2z
						 M1693.2,487.6c-0.5,0-1.1-0.3-1.4-0.7c-0.7-0.9-0.6-2.1,0.3-2.9c4.3-3.6,8.8-7.1,13.4-10.4c0.9-0.7,2.2-0.4,2.8,0.5
						c0.7,0.9,0.4,2.2-0.5,2.8c-4.5,3.2-9,6.6-13.2,10.2C1694.2,487.5,1693.7,487.6,1693.2,487.6z M1729.8,462.9
						c-0.7,0-1.3-0.4-1.7-1.1c-0.5-1-0.2-2.2,0.8-2.8c5-2.7,10.1-5.2,15.3-7.4c1-0.5,2.2,0,2.7,1c0.5,1,0,2.2-1,2.7
						c-5.1,2.2-10.1,4.7-15,7.3C1730.5,462.9,1730.1,463,1729.8,462.9z M1770.5,446.2c-0.8-0.1-1.6-0.6-1.8-1.5
						c-0.3-1.1,0.3-2.2,1.4-2.5c5.4-1.6,10.9-3,16.5-4.2c1.1-0.2,2.2,0.5,2.4,1.6c0.2,1.1-0.5,2.2-1.6,2.4
						c-5.4,1.1-10.9,2.5-16.2,4.1C1771,446.2,1770.8,446.2,1770.5,446.2z"/>
					<path class="st4" d="M1814,438.1c-1-0.1-1.8-0.8-1.9-1.9c-0.1-1.1,0.7-2.1,1.9-2.2c2.7-0.2,5.5-0.4,8.2-0.5
						c1.1-0.1,2.1,0.8,2.1,1.9c0,1.1-0.8,2.1-1.9,2.1c-2.7,0.1-5.4,0.3-8,0.5C1814.2,438.2,1814.1,438.2,1814,438.1z"/>
				</g>
				<g>
					<path class="st4" d="M1979.1,496.4c-0.5,0-0.9-0.2-1.3-0.6c-1.9-1.8-3.9-3.7-6-5.4c-0.8-0.7-0.9-2-0.2-2.9
						c0.7-0.8,2-0.9,2.9-0.2c2,1.8,4.1,3.7,6.1,5.5c0.8,0.8,0.8,2.1,0.1,2.9C1980.3,496.2,1979.7,496.5,1979.1,496.4z"/>
					<path class="st4" d="M1865.3,864.7c-0.9-0.1-1.7-0.8-1.9-1.7c-0.2-1.1,0.6-2.2,1.7-2.3c5.4-0.9,10.8-1.9,16.1-3.2
						c1.1-0.3,2.2,0.4,2.5,1.5c0.3,1.1-0.4,2.2-1.5,2.5c-5.4,1.3-10.9,2.4-16.4,3.3C1865.6,864.7,1865.5,864.7,1865.3,864.7z
						 M1907.3,853.5c-0.8,0-1.5-0.5-1.8-1.3c-0.4-1.1,0.1-2.2,1.2-2.6c5.1-1.9,10.2-4.1,15.1-6.4c1-0.5,2.2,0,2.7,1
						c0.5,1,0,2.2-1,2.7c-5,2.4-10.2,4.6-15.4,6.5C1907.8,853.5,1907.5,853.5,1907.3,853.5z M1946.1,834.1c-0.6,0-1.2-0.4-1.6-0.9
						c-0.6-1-0.3-2.2,0.6-2.8c1-0.6,1.9-1.2,2.9-1.9c3.6-2.4,7.2-4.8,10.6-7.4c0.9-0.7,2.2-0.5,2.8,0.4c0.7,0.9,0.5,2.2-0.4,2.8
						c-3.5,2.6-7.1,5.2-10.8,7.6c-1,0.6-2,1.3-3,1.9C1946.9,834,1946.5,834.1,1946.1,834.1z M1980.2,807.4c-0.5,0-1-0.2-1.3-0.6
						c-0.8-0.8-0.8-2.1,0.1-2.9c3.9-3.8,7.8-7.7,11.4-11.8c0.8-0.8,2-0.9,2.9-0.2c0.8,0.7,0.9,2,0.2,2.9c-3.7,4.1-7.6,8.2-11.6,12
						C1981.3,807.2,1980.8,807.4,1980.2,807.4z M2008.3,774.3c-0.4,0-0.7-0.1-1-0.4c-0.9-0.6-1.2-1.9-0.5-2.8
						c3.1-4.5,6-9.1,8.8-13.8c0.6-1,1.8-1.3,2.8-0.7c1,0.6,1.3,1.8,0.7,2.8c-2.8,4.8-5.8,9.5-8.9,14.1
						C2009.7,774.1,2009,774.4,2008.3,774.3z M2029.1,736.3c-0.2,0-0.4-0.1-0.7-0.2c-1-0.4-1.5-1.6-1.1-2.7c2.1-5,4.1-10.2,5.8-15.3
						c0.4-1.1,1.5-1.6,2.6-1.3c1.1,0.4,1.6,1.5,1.3,2.6c-1.8,5.3-3.8,10.5-5.9,15.6C2030.8,735.9,2030,736.4,2029.1,736.3z
						 M2041.9,694.9c-0.1,0-0.2,0-0.3,0c-1.1-0.2-1.8-1.3-1.6-2.4c1.1-5.3,2-10.8,2.6-16.2c0.1-1.1,1.1-1.9,2.3-1.8
						c1.1,0.1,1.9,1.2,1.8,2.3c-0.7,5.5-1.6,11.1-2.7,16.5C2043.8,694.2,2042.9,694.9,2041.9,694.9z M2046.2,651.7
						c-1.1-0.1-1.9-0.9-1.9-2c0-5.4-0.2-11-0.7-16.4c-0.1-1.1,0.7-2.1,1.9-2.2c1.1-0.1,2.1,0.7,2.2,1.9c0.4,5.5,0.7,11.1,0.7,16.7
						c0,1.1-0.9,2-2,2C2046.3,651.7,2046.2,651.7,2046.2,651.7z M2041.7,608.5c-0.9-0.1-1.7-0.7-1.9-1.6c-1.1-5.3-2.4-10.7-4-15.9
						c-0.3-1.1,0.3-2.2,1.4-2.5c1.1-0.3,2.2,0.3,2.5,1.4c1.6,5.3,2.9,10.8,4,16.2c0.2,1.1-0.5,2.2-1.6,2.4
						C2042,608.5,2041.8,608.6,2041.7,608.5z M2028.6,567.2c-0.7,0-1.4-0.5-1.7-1.2c-2.2-5-4.5-10-7.1-14.8c-0.5-1-0.1-2.2,0.8-2.8
						c1-0.5,2.2-0.1,2.8,0.8c2.6,4.9,5,10,7.2,15.1c0.4,1,0,2.2-1.1,2.7C2029.2,567.2,2028.9,567.2,2028.6,567.2z M2007.4,529.3
						c-0.6,0-1.2-0.3-1.5-0.9c-3.1-4.5-6.4-8.9-9.9-13.1c-0.7-0.9-0.6-2.2,0.3-2.9c0.9-0.7,2.2-0.6,2.9,0.3
						c3.5,4.3,6.9,8.8,10.1,13.3c0.6,0.9,0.4,2.2-0.5,2.8C2008.3,529.2,2007.8,529.3,2007.4,529.3z"/>
					<path class="st4" d="M1830.3,867.4c-1.1-0.1-1.9-1-1.9-2c0-1.1,0.9-2,2-2c2.7,0,5.4,0,8.1-0.1c1.1,0,2.1,0.8,2.1,2
						c0,1.1-0.8,2.1-2,2.1c-2.7,0.1-5.5,0.1-8.2,0.1C1830.4,867.4,1830.4,867.4,1830.3,867.4z"/>
				</g>
				<g>
					<g>
						<path class="st4" d="M1809.9,814.1c1.1,0.3,2.2-0.2,2.8-1.1l16.9-26.4c14.7,0.1,29.4-2.1,43.8-6.8l24.2,20
							c0.8,0.7,2,0.8,3,0.2l32.1-19.6c0.9-0.6,1.4-1.7,1.2-2.8l-6.7-30.6c10.7-10.6,19.5-22.7,26.1-35.8l31.3-3c1.1-0.1,2-0.9,2.3-2
							l8.9-36.6c0.3-1.1-0.2-2.2-1.1-2.8l-26.4-16.9c0.1-14.7-2.1-29.4-6.8-43.8l20-24.2c0.7-0.8,0.8-2,0.2-3l-19.6-32.1
							c-0.6-0.9-1.7-1.4-2.8-1.2l-30.6,6.7c-10.6-10.7-22.7-19.5-35.8-26.1l-3-31.3c-0.1-1.1-0.9-2-2-2.3l-36.6-8.9
							c-1.1-0.3-2.2,0.2-2.8,1.1l-16.9,26.4c-14.7-0.1-29.4,2.1-43.8,6.8l-24.2-20c-0.8-0.7-2-0.8-3-0.2l-32.1,19.6
							c-0.9,0.6-1.4,1.7-1.2,2.8l6.7,30.6c-10.7,10.6-19.5,22.7-26.1,35.8l-31.3,3c-1.1,0.1-2,0.9-2.3,2l-8.9,36.6
							c-0.3,1.1,0.2,2.2,1.1,2.8l26.4,16.9c-0.1,14.7,2.1,29.4,6.8,43.8l-20,24.2c-0.7,0.8-0.8,2-0.2,3l19.6,32.1
							c0.6,0.9,1.7,1.4,2.8,1.2l30.6-6.7c10.6,10.7,22.7,19.5,35.8,26.1l3,31.3c0.1,1.1,0.9,2,2,2.3L1809.9,814.1z"/>
					</g>
					<path class="st5" d="M1828.1,685.4c-8.7-0.5-16.9-4.2-23.2-10.4c-7-6.8-10.8-15.9-10.9-25.7c-0.1-9.7,3.6-18.9,10.4-25.9
						c14.1-14.4,37.2-14.6,51.6-0.5c14.4,14.1,14.6,37.2,0.5,51.6c-6.8,7-15.9,10.8-25.7,10.9C1829.9,685.5,1829,685.4,1828.1,685.4
						z M1832.3,618.7c-8.5-0.5-17.2,2.5-23.6,9c-11.7,12-11.5,31.2,0.4,43c5.8,5.7,13.5,8.8,21.6,8.7c8.1-0.1,15.7-3.3,21.4-9.1l0,0
						c11.7-12,11.5-31.2-0.4-43C1846.3,622,1839.4,619.1,1832.3,618.7z"/>
					<path class="st5" d="M1861.4,736.9l-2-5.8c5.9-2,11.5-4.7,16.9-8l0,0c37.4-22.8,51.7-69.4,35.4-108.6
						c-1.7-4.1-3.8-8.2-6.2-12.1c-25.2-41.3-79.4-54.4-120.7-29.2c-25.4,15.5-40.2,42-41.9,69.7c-1.1,17.3,3,35.1,12.7,51.1
						c8.3,13.6,20.1,24.7,34.1,32l-2.8,5.4c-15-7.9-27.6-19.7-36.5-34.2c-10.4-17-14.7-36.1-13.6-54.6c1.8-29.6,17.6-57.9,44.8-74.5
						c44.2-27,102.1-13,129.1,31.2c10.4,17,14.7,36.1,13.6,54.6c-1.8,29.6-17.6,57.9-44.8,74.5c-0.5,0.3-1.1,0.7-1.7,1c0,0,0,0,0,0
						c0,0-0.1,0-0.1,0.1c0,0,0,0,0,0c0,0,0,0-0.1,0c-4.2,2.4-8.5,4.5-13,6.3c0,0-0.1,0-0.1,0.1c-0.1,0-0.1,0.1-0.2,0.1
						c-0.2,0.1-0.3,0.1-0.5,0.2C1863,736.3,1862.2,736.6,1861.4,736.9z"/>
				</g>
			</g>
			<g>
				<path class="st4" d="M1879.8,430l8.3-15.5c8.2-0.6,16.4-2.5,24.1-5.8l14.4,10.1c0.5,0.4,1.2,0.3,1.7,0l17.1-12.4
					c0.5-0.4,0.7-1,0.5-1.6l-5.1-16.8c5.5-6.4,9.9-13.6,13-21.2l17.3-3c0.6-0.1,1.1-0.6,1.2-1.2l3.3-20.8c0.1-0.6-0.2-1.2-0.7-1.5
					l-15.5-8.3c-0.6-8.2-2.5-16.4-5.8-24.1l10.1-14.4c0.4-0.5,0.3-1.2,0-1.7l-12.4-17.1c-0.4-0.5-1-0.7-1.6-0.5l-16.8,5.1
					c-6.4-5.5-13.6-9.9-21.2-13l-3-17.3c-0.1-0.6-0.6-1.1-1.2-1.2l-20.8-3.3c-0.6-0.1-1.2,0.2-1.5,0.7l-8.3,15.5
					c-8.2,0.6-16.4,2.5-24.1,5.8l-14.4-10.1c-0.5-0.4-1.2-0.3-1.7,0l-17.1,12.4c-0.5,0.4-0.7,1-0.5,1.6l5.1,16.8
					c-5.5,6.4-9.9,13.6-13,21.2l-17.3,3c-0.6,0.1-1.1,0.6-1.2,1.2l-3.3,20.8c-0.1,0.6,0.2,1.2,0.7,1.5l15.5,8.3
					c0.6,8.2,2.5,16.4,5.8,24.1l-10.1,14.4c-0.4,0.5-0.3,1.2,0,1.7l12.4,17.1c0.4,0.5,1,0.7,1.6,0.5l16.8-5.1
					c6.4,5.5,13.6,9.9,21.2,13l3,17.3c0.1,0.6,0.6,1.1,1.2,1.2l20.8,3.3C1878.9,430.8,1879.5,430.5,1879.8,430z"/>
			</g>
			<path class="st5" d="M1881.1,359.3c-4.6-0.3-9-2-12.6-5c-9.2-7.7-10.5-21.5-2.8-30.7c7.7-9.2,21.5-10.5,30.7-2.8
				c9.2,7.7,10.5,21.5,2.8,30.7c-3.7,4.5-9,7.2-14.8,7.7C1883.3,359.4,1882.2,359.4,1881.1,359.3z M1883.4,321.9
				c-4.8-0.3-9.7,1.6-13,5.6c-5.5,6.6-4.7,16.5,2,22.1c6.6,5.5,16.5,4.7,22.1-2c2.7-3.2,4-7.3,3.6-11.5c-0.4-4.2-2.3-8-5.6-10.6
				C1889.9,323.3,1886.7,322.1,1883.4,321.9z"/>
			<g>
				<path class="st4" d="M1844.4,446.2c-0.2,0-0.4,0-0.6-0.1c-2.6-0.9-5.2-2-7.7-3.1c-1-0.5-1.5-1.7-1-2.7c0.5-1,1.7-1.5,2.7-1
					c2.4,1.1,4.9,2.1,7.4,2.9c1.1,0.4,1.6,1.5,1.2,2.6C1846.2,445.7,1845.3,446.3,1844.4,446.2z"/>
				<path class="st4" d="M1815.6,431c-0.4,0-0.7-0.1-1.1-0.4c-2-1.5-4-3-6-4.7c-2-1.7-3.9-3.4-5.8-5.2c-0.8-0.8-0.8-2.1-0.1-2.9
					c0.8-0.8,2.1-0.8,2.9-0.1c1.8,1.7,3.7,3.4,5.6,5c1.9,1.6,3.8,3.1,5.7,4.5c0.9,0.7,1.1,1.9,0.4,2.8
					C1817,430.7,1816.3,431,1815.6,431z M1788.3,402.5c-0.6,0-1.2-0.3-1.6-0.9c-2.8-4.2-5.4-8.7-7.7-13.3c-0.5-1-0.1-2.2,0.9-2.7
					c1-0.5,2.2-0.1,2.7,0.9c2.2,4.4,4.7,8.7,7.4,12.8c0.6,0.9,0.4,2.2-0.6,2.8C1789.2,402.5,1788.7,402.6,1788.3,402.5z
					 M1772.4,366.5c-0.9-0.1-1.6-0.7-1.9-1.6c-1.2-5-2.1-10-2.6-15.1c-0.1-1.1,0.7-2.1,1.8-2.2c1.1-0.1,2.1,0.7,2.2,1.8
					c0.5,4.9,1.4,9.8,2.5,14.6c0.3,1.1-0.4,2.2-1.5,2.5C1772.8,366.5,1772.6,366.5,1772.4,366.5z M1769.9,327.1
					C1769.8,327.1,1769.8,327.1,1769.9,327.1c-1.2-0.1-2-1.1-1.9-2.3c0.6-5.1,1.5-10.2,2.7-15.1c0.3-1.1,1.4-1.7,2.5-1.5
					c1.1,0.3,1.8,1.4,1.5,2.5c-1.2,4.8-2.1,9.7-2.6,14.6C1771.9,326.4,1771,327.2,1769.9,327.1z M1781,289.3c-0.3,0-0.5-0.1-0.8-0.2
					c-1-0.5-1.4-1.7-0.9-2.7c2.3-4.6,4.9-9,7.7-13.3c0.6-0.9,1.9-1.2,2.8-0.5c0.9,0.6,1.2,1.9,0.5,2.8c-2.8,4.1-5.3,8.4-7.5,12.8
					C1782.5,288.9,1781.8,289.4,1781,289.3z M1804.4,257.6c-0.5,0-1-0.2-1.3-0.6c-0.8-0.8-0.7-2.1,0.1-2.9c3.7-3.5,7.7-6.8,11.8-9.8
					c0.9-0.7,2.2-0.5,2.8,0.5c0.7,0.9,0.5,2.2-0.5,2.8c-4,2.9-7.8,6.1-11.4,9.5C1805.5,257.4,1804.9,257.6,1804.4,257.6z"/>
				<path class="st4" d="M1837.3,235.8c-0.7,0-1.4-0.5-1.7-1.2c-0.4-1,0-2.2,1.1-2.7c2.5-1.1,5.1-2.1,7.7-3c1.1-0.4,2.2,0.2,2.6,1.3
					s-0.2,2.2-1.3,2.6c-2.5,0.9-5,1.8-7.4,2.9C1838,235.7,1837.6,235.8,1837.3,235.8z"/>
			</g>
			<g>
				<path class="st4" d="M1936.4,240.2c-0.3,0-0.6-0.1-0.8-0.2c-2.3-1.3-4.7-2.5-7.1-3.6c-1-0.5-1.5-1.7-1-2.7c0.5-1,1.7-1.5,2.7-1
					c2.5,1.1,5,2.4,7.4,3.7c1,0.5,1.3,1.8,0.8,2.8C1937.9,239.8,1937.1,240.2,1936.4,240.2z"/>
				<path class="st4" d="M1947.6,432c-0.6,0-1.2-0.3-1.5-0.9c-0.6-0.9-0.4-2.2,0.5-2.8c4.7-3.3,9.1-7,13.2-11c0.8-0.8,2.1-0.8,2.9,0
					c0.8,0.8,0.8,2.1,0,2.9c-4.3,4.1-8.9,8-13.7,11.4C1948.5,431.9,1948,432.1,1947.6,432z M1978.7,398.8c-0.3,0-0.6-0.1-0.9-0.3
					c-1-0.6-1.3-1.8-0.7-2.8c3-4.9,5.6-10,7.8-15.3c0.4-1,1.6-1.5,2.7-1.1c1,0.4,1.5,1.6,1.1,2.7c-2.3,5.5-5,10.8-8.1,15.8
					C1980.2,398.5,1979.5,398.8,1978.7,398.8z M1994.3,355.9c-0.1,0-0.1,0-0.2,0c-1.1-0.2-1.9-1.2-1.7-2.3c0.4-3,0.7-6,0.9-9.1
					c0.2-2.7,0.2-5.4,0.2-8.1c0-1.1,0.9-2,2-2.1c1.1,0,2,0.9,2.1,2c0,2.8,0,5.6-0.2,8.3c-0.2,3.1-0.5,6.3-1,9.4
					C1996.3,355.2,1995.3,356,1994.3,355.9z M1991.6,310.4c-0.9-0.1-1.6-0.6-1.8-1.5c-1.5-5.5-3.4-11-5.7-16.2c-0.5-1,0-2.2,1-2.7
					c1-0.5,2.2,0,2.7,1c2.4,5.4,4.4,11.1,5.9,16.8c0.3,1.1-0.4,2.2-1.4,2.5C1992.1,310.4,1991.8,310.4,1991.6,310.4z M1971.2,269.6
					c-0.6,0-1.1-0.3-1.5-0.8c-3.5-4.5-7.4-8.7-11.6-12.6c-0.8-0.8-0.9-2.1-0.1-2.9c0.8-0.8,2.1-0.9,2.9-0.1c4.4,4,8.4,8.4,12.1,13.1
					c0.7,0.9,0.5,2.2-0.3,2.9C1972.2,269.5,1971.7,269.6,1971.2,269.6z"/>
				<path class="st4" d="M1914.8,448c-0.8-0.1-1.6-0.6-1.8-1.5c-0.3-1.1,0.3-2.2,1.4-2.5c2.5-0.8,5.1-1.6,7.6-2.6
					c1-0.4,2.2,0.1,2.6,1.2c0.4,1.1-0.1,2.2-1.2,2.6c-2.6,1-5.2,1.9-7.8,2.7C1915.2,448,1915,448,1914.8,448z"/>
			</g>
			<path class="st5" d="M1861.3,386.8c-9-3.8-16.7-10-22.5-17.9c-7.6-10.5-10.9-22.9-10.2-35c1-15.5,8.6-30.6,22.2-40.4
				c24.1-17.5,57.9-12.1,75.4,12c7.6,10.5,10.9,22.9,10.2,35c-1,15.5-8.6,30.6-22.2,40.4v0c-2.9,2.1-6.1,3.9-9.3,5.4
				c-0.1,0-0.1,0-0.2,0.1c-0.2,0.1-0.3,0.1-0.5,0.2l-2.5-5.6c3.1-1.4,6.1-3.1,8.8-5.1l0,0c20.5-14.8,25.7-42.9,12.5-64.1
				c-0.6-0.9-1.2-1.9-1.9-2.8c-15.5-21.4-45.5-26.1-66.8-10.6c-12,8.7-18.8,22-19.7,35.8c-0.7,10.7,2.2,21.7,9,31
				c5.1,7,12,12.5,19.9,15.9L1861.3,386.8z"/>
		</g>
		<g>
			<path class="st1" d="M540.5,652c-7.3,58.5-43.6,419.1,148.2,534.2c5.8,3.5,13.3-0.4,13.7-7.1c3.1-43,5.1-179.6-73.8-340.8
				c-56.9-116.3-77.8-168.7-84.4-186.7C543.6,649.7,540.8,650,540.5,652z"/>
			<g>
				<path class="st6" d="M702.4,1182.4c-1.2,0-2.3-0.6-2.9-1.7c-96.3-177-140.4-396.1-138-403.5c0.6-1.8,2.4-2.7,4.2-2.2
					c1.6,0.5,2.5,2.1,2.3,3.7c0.1,10,42.2,223.8,137.4,398.8c0.9,1.6,0.3,3.6-1.3,4.5C703.5,1182.2,703,1182.4,702.4,1182.4z
					 M567.8,779.1C567.8,779.1,567.8,779.1,567.8,779.1C567.8,779.1,567.8,779.1,567.8,779.1z"/>
			</g>
		</g>
		<g>
			<path class="st1" d="M1356.7,480.6c0.4-2.8,4.3-3.2,5.2-0.5c27.5,78.3,185.5,563.9-44.1,779.6c-7,6.5-18.4,3.4-21.1-5.7
				c-17.1-58.2-60.7-245.7-0.3-491.2C1340,585.7,1353.1,507.3,1356.7,480.6z"/>
			<g>
				<path class="st6" d="M1297.8,1257.2c-0.6,0.2-1.3,0.2-2,0c-1.8-0.5-2.8-2.4-2.3-4.1c41.6-142.6,58.9-292.6,65.9-393.3
					c7.9-111.7,5.4-191.3,3.9-197.6c-0.6-1.5,0-3.3,1.4-4.2c1.6-0.9,3.6-0.4,4.6,1.3c2.8,5,4.2,92.9-3,197.3
					c-7,102-24.3,254-66.5,398.5C1299.7,1256,1298.8,1256.8,1297.8,1257.2z M1363.6,662.5C1363.6,662.5,1363.6,662.5,1363.6,662.5
					C1363.6,662.5,1363.6,662.5,1363.6,662.5z"/>
			</g>
		</g>
		<g>
			<g>
				<g>
					<path class="st4" d="M1348.8,1234.4l627.9,0v-125.7l-627.9,0C1362.2,1108.8,1362.2,1234.4,1348.8,1234.4z"/>
					<path class="st7" d="M1976.6,1203v-57.5c0-20.3-12.4-36.7-27.7-36.7h-597.5c-12,0-21.8-9.8-21.8-21.8v0c0-3.7,3-6.6,6.6-6.6
						h653c15,0,38.8,23.5,38.8,52.6v80.3c0,27.4-23.1,49.6-37.2,49.6h-651.1c-5.6,0-10.1-4.5-10.1-10.1c0-10.1,8.2-18.4,18.4-18.4
						h604.9C1966,1234.4,1976.6,1220.3,1976.6,1203z"/>
				</g>
				<path class="st5" d="M1959.2,1136.8h-588.7c-1.2,0-2.2-1-2.2-2.2s1-2.2,2.2-2.2h588.7c1.2,0,2.2,1,2.2,2.2
					S1960.4,1136.8,1959.2,1136.8z"/>
				<path class="st5" d="M1959.2,1155.4h-588.7c-1.2,0-2.2-1-2.2-2.2c0-1.2,1-2.2,2.2-2.2h588.7c1.2,0,2.2,1,2.2,2.2
					C1961.4,1154.4,1960.4,1155.4,1959.2,1155.4z"/>
				<path class="st5" d="M1959.2,1174.1h-588.7c-1.2,0-2.2-1-2.2-2.2c0-1.2,1-2.2,2.2-2.2h588.7c1.2,0,2.2,1,2.2,2.2
					C1961.4,1173.1,1960.4,1174.1,1959.2,1174.1z"/>
				<path class="st5" d="M1959.2,1192.7h-588.7c-1.2,0-2.2-1-2.2-2.2s1-2.2,2.2-2.2h588.7c1.2,0,2.2,1,2.2,2.2
					S1960.4,1192.7,1959.2,1192.7z"/>
				<path class="st5" d="M1959.2,1211.4h-588.7c-1.2,0-2.2-1-2.2-2.2c0-1.2,1-2.2,2.2-2.2h588.7c1.2,0,2.2,1,2.2,2.2
					C1961.4,1210.4,1960.4,1211.4,1959.2,1211.4z"/>
			</g>
			<g>
				<path class="st4" d="M1473.7,1080.3h439.1c34.8,0,62.9-28.2,62.9-62.9v-10.5c0-34.8-28.2-62.9-62.9-62.9h-439.1
					c-34.8,0-62.9,28.2-62.9,62.9v10.5C1410.8,1052.2,1439,1080.3,1473.7,1080.3z"/>
				<path class="st5" d="M1868.2,1064.7h21c12.5,0,22.7-10.2,22.7-22.7v-59.7c0-12.5-10.2-22.7-22.7-22.7h-21
					c-12.5,0-22.7,10.2-22.7,22.7v59.7C1845.5,1054.5,1855.7,1064.7,1868.2,1064.7z"/>
				<path class="st5" d="M1822.4,1064.7h1.9c6.3,0,11.5-5.1,11.5-11.5v-82c0-6.3-5.1-11.5-11.5-11.5h-1.9c-6.3,0-11.5,5.1-11.5,11.5
					v82C1810.9,1059.5,1816,1064.7,1822.4,1064.7z"/>
			</g>
		</g>
		<g>
			<path class="st1" d="M1328.5,1259.2c67.9-17,255.6-95.1,181.5-432.3c-2.1-9.6-15.5-10.2-18.4-0.8
				c-13.6,43.9-38.9,119.5-73.6,155.3c-107.5,110.9-117.5,213.4-115.6,258.4C1303,1253,1315.6,1262.4,1328.5,1259.2z"/>
			<path class="st6" d="M1318.5,1253.8c-1.3,0.5-2.8,0.2-3.7-0.9c-1.2-1.4-1.1-3.5,0.3-4.7c150.7-131.7,174.1-313.3,174.3-315.1
				c0.2-1.8,1.9-3.1,3.7-2.9c1.8,0.2,3.1,1.9,2.9,3.7c-0.1,0.5-5.8,46.9-30.3,109.1c-22.6,57.4-66.4,140.5-146.2,210.2
				C1319.1,1253.5,1318.8,1253.7,1318.5,1253.8z"/>
		</g>
		<g>
			<linearGradient id="SVGID_1_" gradientUnits="userSpaceOnUse" x1="1468.5643" y1="1072.4617" x2="1843.274" y2="199.1711">
				<stop  offset="0" style="stop-color:#FE7062"/>
				<stop  offset="1" style="stop-color:#FF928E"/>
			</linearGradient>
			<path class="st8" d="M1292,1150l300.3-575.3h-61.5c-11.3,0-17.6-13.2-10.4-22l320-390.1c13.9-16.9,41.3-6.2,40,15.6l-22.5,381.4
				c-1.3,21.8-20.6,38.1-42.4,35.6l-42.9-4.9l-297.9,645.2c-7.8,16.8-24.6,27.6-43.1,27.6h-103.3L1292,1150z"/>
			<linearGradient id="SVGID_2_" gradientUnits="userSpaceOnUse" x1="1153.9906" y1="654.9354" x2="1311.9257" y2="1159.7096">
				<stop  offset="0" style="stop-color:#FE7062"/>
				<stop  offset="1" style="stop-color:#FF928E"/>
			</linearGradient>
			<path class="st9" d="M1043.7,746.5l212,470.9c12.6,27.9,40.3,45.8,70.9,45.8h109.3c14.5,0,27.9-7.9,34.9-20.5l3.9-7l0,0
				c-11.7,0-22.5-6.6-27.8-17l-282.4-553.4L1043.7,746.5z"/>
			<linearGradient id="SVGID_3_" gradientUnits="userSpaceOnUse" x1="784.016" y1="1135.2736" x2="1053.4355" y2="707.9191">
				<stop  offset="0" style="stop-color:#FE7062"/>
				<stop  offset="1" style="stop-color:#FF928E"/>
			</linearGradient>
			<path class="st10" d="M1192.9,721.2L1192.9,721.2c-21.3-16.8-52.3-11.9-67.3,10.7l-311.7,468.3c-25,37.5-67,60-112.1,60H658
				l-35.7-102.8c0,0,289.8-444.3,364.4-511.5c0,0,74.4-67,147.7-16.4c19.4,13.4,34.1,32.5,43.1,54.3L1192.9,721.2z"/>
			<linearGradient id="SVGID_4_" gradientUnits="userSpaceOnUse" x1="433.2368" y1="820.7921" x2="628.3337" y2="1192.4049">
				<stop  offset="0" style="stop-color:#FE7062"/>
				<stop  offset="1" style="stop-color:#FF928E"/>
			</linearGradient>
			<path class="st11" d="M283.3,880.8c0,0,52.2-65.2,153.3-75.4c0,0,48,16.4,143.7,187.8c95.7,171.4,159.2,249.6,233.7,206.9
				l-6.2,10.2c-20.3,33.8-56.9,54.4-96.3,54.4h-41.2c-45.4,0-88-21.8-114.5-58.6C481.3,1102.6,329,896.9,283.3,880.8z"/>
			<linearGradient id="SVGID_5_" gradientUnits="userSpaceOnUse" x1="1840.9092" y1="286.6922" x2="1849.693" y2="286.6922">
				<stop  offset="0" style="stop-color:#FF928E"/>
				<stop  offset="1" style="stop-color:#FEB3B1"/>
			</linearGradient>
			<path class="st12" d="M1844.3,299.3c-0.1,0-0.3,0-0.4,0c-1.8-0.2-3.1-1.9-2.9-3.7l2.1-18.6c0.2-1.8,1.9-3.2,3.7-2.9
				c1.8,0.2,3.1,1.9,2.9,3.7l-2.1,18.6C1847.4,298.1,1845.9,299.3,1844.3,299.3z"/>
			<linearGradient id="SVGID_6_" gradientUnits="userSpaceOnUse" x1="1573.7578" y1="357.8218" x2="1859.2416" y2="357.8218">
				<stop  offset="0" style="stop-color:#FF928E"/>
				<stop  offset="1" style="stop-color:#FEB3B1"/>
			</linearGradient>
			<path class="st13" d="M1577.1,534.4c-0.7,0-1.4-0.2-2-0.7c-1.5-1.1-1.7-3.2-0.6-4.7l264.3-343.4c3.2-4.1,8.5-5.6,13.4-3.6
				c4.8,2,7.7,6.7,7.1,11.9l-4.7,41.2c-0.2,1.8-1.9,3.2-3.7,2.9c-1.8-0.2-3.1-1.9-2.9-3.7l4.7-41.2c0.3-2.7-1.3-4.3-3-5
				c-1.6-0.7-3.9-0.6-5.6,1.5l-264.3,343.4C1579.1,534,1578.1,534.4,1577.1,534.4z"/>
			<linearGradient id="SVGID_7_" gradientUnits="userSpaceOnUse" x1="974.2355" y1="785.1339" x2="1154.1768" y2="785.1339">
				<stop  offset="0" style="stop-color:#FF928E"/>
				<stop  offset="1" style="stop-color:#FEB3B1"/>
			</linearGradient>
			<path class="st14" d="M977.6,894.4c-0.6,0-1.3-0.2-1.9-0.6c-1.5-1-1.9-3.1-0.9-4.6l136.7-202.6c5-7.4,13.2-11.4,22.1-10.7
				c8.9,0.7,16.4,5.9,20.3,13.9c0.8,1.7,0.1,3.7-1.6,4.4c-1.7,0.8-3.7,0.1-4.4-1.6c-2.8-5.8-8.3-9.6-14.7-10.1
				c-6.5-0.5-12.5,2.4-16.1,7.8L980.3,892.9C979.7,893.9,978.6,894.4,977.6,894.4z"/>
			<linearGradient id="SVGID_8_" gradientUnits="userSpaceOnUse" x1="938.7194" y1="937.2332" x2="954.1575" y2="937.2332">
				<stop  offset="0" style="stop-color:#FF928E"/>
				<stop  offset="1" style="stop-color:#FEB3B1"/>
			</linearGradient>
			<path class="st15" d="M942.1,947.1c-0.6,0-1.3-0.2-1.9-0.6c-1.5-1-1.9-3.1-0.9-4.6l8.8-13c1-1.5,3.1-1.9,4.6-0.9
				c1.5,1,1.9,3.1,0.9,4.6l-8.8,13C944.2,946.6,943.1,947.1,942.1,947.1z"/>
		</g>
		<g>
			<g class="st2">
				<path class="st1" d="M1032.3,356.6L745.1,355c-11.8-0.1-19.1,12.8-13,22.8l1.4,2.4c2.7,4.5,7.6,7.3,12.9,7.3h285.7
					c8.3,0,15.1-6.7,15.1-15.1v-0.8C1047.2,363.4,1040.5,356.6,1032.3,356.6z"/>
				<path class="st1" d="M1072.4,372v0.5c0,8.3,6.7,15.1,15.1,15.1h63.7c6.8,0,12.8-4.6,14.6-11.2l0,0c2.5-9.5-4.6-18.9-14.4-19
					l-63.7-0.5C1079.2,356.8,1072.4,363.6,1072.4,372z"/>
			</g>
			<g class="st2">
				<path class="st1" d="M963.2,410.7l-218-1.6c-11.8-0.1-19.1,12.8-13,22.8l1.4,2.4c2.7,4.5,7.6,7.3,12.9,7.3h216.6
					c8.3,0,15.1-6.7,15.1-15.1v-0.8C978.2,417.5,971.5,410.7,963.2,410.7z"/>
				<path class="st1" d="M1003.3,426.1v0.5c0,8.3,6.7,15.1,15.1,15.1h63.7c6.8,0,12.8-4.6,14.6-11.2l0,0c2.5-9.5-4.6-18.9-14.4-19
					l-63.7-0.5C1010.1,410.9,1003.3,417.7,1003.3,426.1z"/>
			</g>
		</g>
		<g>
			<g class="st2">
				<path class="st1" d="M308.1,779L21,777.4c-11.8-0.1-19.1,12.8-13,22.8l1.4,2.4c2.7,4.5,7.6,7.3,12.9,7.3H308
					c8.3,0,15.1-6.7,15.1-15.1V794C323.1,785.7,316.4,779,308.1,779z"/>
				<path class="st1" d="M348.2,794.4v0.5c0,8.3,6.7,15.1,15.1,15.1H427c6.8,0,12.8-4.6,14.6-11.2l0,0c2.5-9.5-4.6-18.9-14.4-19
					l-63.7-0.5C355,779.2,348.2,786,348.2,794.4z"/>
			</g>
			<g class="st2">
				<path class="st1" d="M239,833.1l-218-1.6c-11.8-0.1-19.1,12.8-13,22.8l1.4,2.4c2.7,4.5,7.6,7.3,12.9,7.3h216.6
					c8.3,0,15.1-6.7,15.1-15.1v-0.8C254,839.8,247.3,833.1,239,833.1z"/>
				<path class="st1" d="M279.1,848.5v0.5c0,8.3,6.7,15.1,15.1,15.1h63.7c6.8,0,12.8-4.6,14.6-11.2l0,0c2.5-9.5-4.6-18.9-14.4-19
					l-63.7-0.5C285.9,833.3,279.1,840.1,279.1,848.5z"/>
			</g>
		</g>
		<g>
			<g>
				<linearGradient id="SVGID_9_" gradientUnits="userSpaceOnUse" x1="1341.7278" y1="244.7355" x2="1326.7632" y2="343.5023">
					<stop  offset="0" style="stop-color:#4042E2"/>
					<stop  offset="1" style="stop-color:#4F52FF"/>
				</linearGradient>
				<path class="st16" d="M1376.3,252.3c-0.1-1.6-1.8-3-4.6-4.1c3-1.7,4.7-3.5,4.6-5.2c-0.4-5.3-17.3-8.3-37.6-6.7
					c-20.3,1.6-36.5,7.3-36.1,12.6c0.1,1.6,1.8,3,4.6,4.1c-3,1.7-4.7,3.5-4.6,5.2c0.1,1.6,1.8,3,4.6,4.1c-3,1.7-4.7,3.5-4.6,5.2
					c0.1,1.6,1.8,3,4.6,4.1c-3,1.7-4.7,3.5-4.6,5.2c0.2,2.4,3.6,4.2,9.1,5.5c-0.1,1.7,0,3.6,0.1,5.7c0.8,9.8,11.8,17.5,26.4,17.5
					c14.6,0,27.2-10.5,27.3-20.3c0-2.4-0.1-4.5-0.3-6.4c7-2.3,11.2-5.2,11-7.9c-0.1-1.6-1.8-3-4.6-4.1c3-1.7,4.7-3.5,4.6-5.2
					c-0.1-1.6-1.8-3-4.6-4.1C1374.7,255.8,1376.4,254.1,1376.3,252.3z"/>
				<g>
					<path class="st5" d="M1329.2,284.5c-6,0-11.6-0.4-16.1-1.3c-0.3-0.1-0.4-0.3-0.4-0.6c0.1-0.3,0.3-0.4,0.6-0.4
						c7.1,1.4,16.7,1.7,26.9,0.8c8.3-0.7,16.1-2,22.5-3.9c0.3-0.1,0.5,0.1,0.6,0.3c0.1,0.3-0.1,0.5-0.3,0.6
						c-6.5,1.9-14.3,3.2-22.7,3.9C1336.5,284.4,1332.8,284.5,1329.2,284.5z"/>
					<path class="st5" d="M1329.3,275.2c-7.8,0-14.9-0.7-19.8-2.1c-0.3-0.1-0.4-0.3-0.3-0.6c0.1-0.3,0.3-0.4,0.6-0.3
						c7.1,2,18.4,2.6,30.4,1.7c11.8-1,22.9-3.4,29.5-6.4c0.2-0.1,0.5,0,0.6,0.2c0.1,0.2,0,0.5-0.2,0.6c-6.8,3.1-17.9,5.5-29.9,6.5
						C1336.5,275,1332.8,275.2,1329.3,275.2z"/>
					<path class="st5" d="M1329.2,265.8c-8.5,0-15.9-0.9-20.9-2.5c-0.3-0.1-0.4-0.4-0.3-0.6c0.1-0.3,0.4-0.4,0.6-0.3
						c6.9,2.3,18.7,3,31.5,2c11.8-1,22.9-3.4,29.5-6.4c0.2-0.1,0.5,0,0.6,0.2c0.1,0.2,0,0.5-0.2,0.6c-6.8,3.1-17.9,5.5-29.9,6.5
						C1336.5,265.7,1332.8,265.8,1329.2,265.8z"/>
					<path class="st5" d="M1329.3,256.5c-6.7,0-12.8-0.5-17.6-1.6c-0.3-0.1-0.4-0.3-0.4-0.6c0.1-0.3,0.3-0.4,0.6-0.4
						c7.1,1.6,17.4,2,28.2,1.1c11.7-0.9,22.7-3.3,29.4-6.4c0.2-0.1,0.5,0,0.6,0.2c0.1,0.2,0,0.5-0.2,0.6c-6.8,3.1-17.9,5.5-29.7,6.4
						C1336.5,256.3,1332.8,256.5,1329.3,256.5z"/>
				</g>
				<linearGradient id="SVGID_10_" gradientUnits="userSpaceOnUse" x1="1347.6145" y1="24.4766" x2="1325.5498" y2="210.283">
					<stop  offset="0" style="stop-color:#FF928E"/>
					<stop  offset="1" style="stop-color:#FEB3B1"/>
				</linearGradient>
				<path class="st17" d="M1288.9,205.1c-2.5-8.8-6.7-16.9-12.3-24.1c-12.1-15.3-31.9-46.3-34.3-88.7c-3.5-61.6,51.1-92.5,101-88.3
					c49.9,4.2,99.1,41.3,93.7,98.6c-3.3,35.3-23.1,62-37.8,77.4c-9.3,9.8-16,21.7-19.6,34.7c-4.4,15.9-14.9,35.8-39.9,37
					C1307.5,253.4,1294.1,223.3,1288.9,205.1z"/>
				<path class="st5" d="M1348,239.6l17.4-113.5c0.4-2.3,1.5-3.9,2.6-3.5c1.1,0.4,1.6,2.6,1.3,5c0,0.1,0,0.1,0,0.2l-19.9,112.4
					c-0.1,0.8-0.6,1.4-1,1.2C1348.1,241.2,1347.9,240.4,1348,239.6z"/>
				<path class="st5" d="M1329.9,240.5L1312.5,127c-0.4-2.3-1.5-3.9-2.6-3.5c-1.1,0.4-1.6,2.6-1.3,5c0,0.1,0,0.1,0,0.2l19.9,112.4
					c0.1,0.8,0.6,1.4,1,1.2C1329.8,242.1,1330,241.3,1329.9,240.5z"/>
				<path class="st5" d="M1365.3,116.3c-0.4-0.7-1.5-1-2.3-0.6l-9.7,4.5l-3.4-9.6c-0.2-0.5-0.6-0.9-1.2-1.2c-1.1-0.5-2.5,0-3,0.9
					l0,0l-8,14.6l-7.4-20.7l0,0c-0.2-0.5-0.6-1-1.1-1.3c-1.2-0.7-2.9-0.4-3.7,0.7l-11.2,15.4c-0.5,0.6-0.3,1.5,0.4,1.9
					c0.7,0.5,1.8,0.4,2.4-0.3l9.8-11l8.9,19.7l0,0c0.1,0.3,0.4,0.6,0.8,0.8c0.8,0.4,1.9,0.1,2.3-0.6l8.5-13.7l3.2,6.9l0,0.1
					c0,0,0,0.1,0.1,0.1c0.4,0.7,1.5,1,2.3,0.6l11.5-5.4C1365.5,117.9,1365.8,117,1365.3,116.3z"/>
				<path class="st5" d="M1399.6,166.6c-0.7,0-1.4-0.2-2-0.7c-1.5-1.1-1.8-3.2-0.7-4.7c2.9-4,5.6-8.1,8-12.2c0.9-1.6,3-2.1,4.6-1.2
					c1.6,0.9,2.1,3,1.2,4.6c-2.5,4.3-5.4,8.7-8.4,12.8C1401.6,166.2,1400.6,166.6,1399.6,166.6z"/>
				<path class="st5" d="M1414,142c-0.4,0-0.9-0.1-1.3-0.3c-1.7-0.7-2.5-2.7-1.7-4.4c18.2-42,2.5-77.2,2.4-77.5
					c-0.8-1.7,0-3.7,1.6-4.4c1.7-0.8,3.7,0,4.4,1.6c0.7,1.5,17.1,38.3-2.3,83C1416.5,141.3,1415.3,142,1414,142z"/>
			</g>
			<g>
				<g>
					<linearGradient id="SVGID_11_" gradientUnits="userSpaceOnUse" x1="928.5562" y1="1068.3694" x2="945.1839" y2="1068.3694">
						<stop  offset="0" style="stop-color:#CB236D"/>
						<stop  offset="1" style="stop-color:#4C246D"/>
					</linearGradient>
					<path class="st18" d="M938.6,1035.4c0.7-8.8,3.5-15,6.6-19.3c-6.6,2.1-9,7-10.6,20.1c-1.8,15.5-5.1,57.6-5.9,66.9
						c-0.9,9.3,3,13.9,5.9,16.9c1,1,2.5,0.5,4.3-0.9c-3.7-4.7-5.2-9.5-5.9-13.5C931.9,1099.4,937,1056,938.6,1035.4z"/>
					<linearGradient id="SVGID_12_" gradientUnits="userSpaceOnUse" x1="932.8544" y1="1063.7969" x2="982.0944" y2="1063.7969">
						<stop  offset="0" style="stop-color:#09005D"/>
						<stop  offset="1" style="stop-color:#1A0F91"/>
					</linearGradient>
					<path class="st19" d="M981.5,1023.2l-11.4-14.8c0,0-11,5.2-20.8,6.8c-1.6,0.2-2.9,0.6-4.2,1c-3.1,4.2-6,10.4-6.6,19.3
						c-1.5,20.5-6.7,64-5.6,70.2c0.7,4,2.2,8.8,5.9,13.5c3.7-2.9,8.5-9.8,12.2-16.9c5.5-10.5,24-42.1,28.3-53.8
						C983.7,1036.7,981.5,1023.2,981.5,1023.2z"/>
				</g>
				<g>
					<g>
						<linearGradient id="SVGID_13_" gradientUnits="userSpaceOnUse" x1="1114.9601" y1="921.6692" x2="1146.493" y2="921.6692">
							<stop  offset="0" style="stop-color:#53D8FF"/>
							<stop  offset="1" style="stop-color:#3840F7"/>
						</linearGradient>
						<path class="st20" d="M1136.8,888.8c2.1-8.6,6-14.2,9.7-17.9c-6.8,1-10.1,5.4-13.7,18.1c-4.4,15-14.5,55.9-16.9,65
							c-2.4,9,0.6,14.2,3.1,17.6c0.8,1.1,2.4,0.9,4.4-0.2c-2.9-5.3-3.5-10.2-3.6-14.3C1119.6,950.8,1131.9,908.9,1136.8,888.8z"/>
						<linearGradient id="SVGID_14_" gradientUnits="userSpaceOnUse" x1="1119.6954" y1="919.4573" x2="1181.1642" y2="919.4573">
							<stop  offset="0" style="stop-color:#09005D"/>
							<stop  offset="1" style="stop-color:#1A0F91"/>
						</linearGradient>
						<path class="st21" d="M1181.2,883.9l-8.8-16.5c0,0-11.7,3.3-21.6,3.2c-1.6,0-3,0.1-4.3,0.3c-3.7,3.7-7.6,9.3-9.7,17.9
							c-4.9,20-17.2,62-17.1,68.3c0.1,4,0.7,9,3.6,14.3c4.1-2.2,10-8.3,14.8-14.6c7.1-9.5,30.6-37.5,36.8-48.4
							C1181.1,897.5,1181.2,883.9,1181.2,883.9z"/>
					</g>
					<linearGradient id="SVGID_15_" gradientUnits="userSpaceOnUse" x1="960.6753" y1="1013.4068" x2="1005.2889" y2="1013.4068">
						<stop  offset="0" style="stop-color:#FF928E"/>
						<stop  offset="1" style="stop-color:#FEB3B1"/>
					</linearGradient>
					<path class="st22" d="M981.5,987.3c-2,2.6-16.6,29.1-19.7,34.9c-0.5,1-0.9,2-1,3.1c-0.4,3-0.1,8.7,6.2,12.9
						c3.8,2.5,9,1.7,11.8-2l26.5-34.9L981.5,987.3z"/>
					<linearGradient id="SVGID_16_" gradientUnits="userSpaceOnUse" x1="1159.8077" y1="873.4881" x2="1204.8401" y2="873.4881">
						<stop  offset="0" style="stop-color:#FF928E"/>
						<stop  offset="1" style="stop-color:#FEB3B1"/>
					</linearGradient>
					<path class="st23" d="M1187.1,848.4c-2.4,2.3-21.2,26-25.2,31.1c-0.7,0.9-1.2,1.8-1.5,2.9c-0.8,2.9-1.5,8.6,4,13.7
						c3.4,3.1,8.6,3.1,12,0l28.5-32.9L1187.1,848.4z"/>
					<linearGradient id="SVGID_17_" gradientUnits="userSpaceOnUse" x1="1406.6372" y1="570.9277" x2="1115.2539" y2="852.7578">
						<stop  offset="0" style="stop-color:#09005D"/>
						<stop  offset="1" style="stop-color:#1A0F91"/>
					</linearGradient>
					<path class="st24" d="M1222.8,723.4c0-7.4,42.2-4.7,79.3-9c19.4-2.2,31,21.1,17.3,35.2l-112.1,115.7c-2.3,2.4-5.9,3.3-9.1,2.3
						c-4.4-1.4-10.8-4.1-16.5-8.5c-3.3-2.6-3.9-7.4-1.5-10.9l51.5-73.4l-47,13.6l-178.5,220.7c-2.9,3.6-8.1,4.5-12.1,2
						c-5.3-3.3-12.3-8.3-16.9-13.8c-2.4-2.9-2.6-7.1-0.5-10.2c19.7-30.1,126.7-194,131.7-211c5.6-18.8,26.1-53.1,45.3-54.3
						S1222.8,723.4,1222.8,723.4z"/>
					<linearGradient id="SVGID_18_" gradientUnits="userSpaceOnUse" x1="1253.913" y1="768.6232" x2="1206.939" y2="809.2278">
						<stop  offset="0" style="stop-color:#09005D"/>
						<stop  offset="1" style="stop-color:#1A0F91"/>
					</linearGradient>
					<path class="st25" d="M1234.7,773.8c-0.5,0-1-0.4-1.2-0.9c-0.2-0.6,0.2-1.3,0.8-1.5l42.3-11.2c0.6-0.2,1.3,0.2,1.5,0.8
						c0.2,0.6-0.2,1.3-0.8,1.5l-42.3,11.2C1234.9,773.8,1234.8,773.8,1234.7,773.8z"/>
					<linearGradient id="SVGID_19_" gradientUnits="userSpaceOnUse" x1="1199.2255" y1="771.27" x2="1174.0133" y2="807.3633">
						<stop  offset="0" style="stop-color:#09005D"/>
						<stop  offset="1" style="stop-color:#1A0F91"/>
					</linearGradient>
					<path class="st26" d="M1189,785.2c-0.3,0-0.6-0.1-0.8-0.3c-0.5-0.4-0.5-1.2-0.1-1.7l10.6-11.5c0.4-0.5,1.2-0.5,1.7-0.1
						c0.5,0.4,0.5,1.2,0.1,1.7l-10.6,11.5C1189.7,785.1,1189.3,785.2,1189,785.2z"/>
					<g>
						<linearGradient id="SVGID_20_" gradientUnits="userSpaceOnUse" x1="995.9543" y1="867.3826" x2="1185.7249" y2="867.3826">
							<stop  offset="0" style="stop-color:#A22B25"/>
							<stop  offset="1" style="stop-color:#C0423C"/>
						</linearGradient>
						<path class="st27" d="M1019.9,796.8l-22.5,55.8c-3.9,9.7,0.6,20.8,10.2,25.1l131.3,59c6.4,2.9,14,0.6,17.7-5.3
							c8.2-13,21.8-36.7,29.1-61.3L1019.9,796.8z"/>
						<linearGradient id="SVGID_21_" gradientUnits="userSpaceOnUse" x1="1000.4725" y1="865.7577" x2="1179.1421" y2="865.7577">
							<stop  offset="0" style="stop-color:#FE7062"/>
							<stop  offset="1" style="stop-color:#FF928E"/>
						</linearGradient>
						<path class="st28" d="M1142.7,933.7c-2,0-4-0.4-5.9-1.3l-0.3-0.1c-0.4-0.2-0.6-0.7-0.4-1.1c0.2-0.4,0.7-0.6,1.1-0.4l0.3,0.1
							c1.8,0.8,3.8,1.2,5.8,1.1c0.5,0,0.9,0.3,0.9,0.8c0,0.5-0.3,0.9-0.8,0.9C1143.2,933.7,1142.9,933.7,1142.7,933.7z
							 M1122.7,926.1c-0.1,0-0.2,0-0.3-0.1l-6.1-2.7c-0.4-0.2-0.6-0.7-0.4-1.1c0.2-0.4,0.7-0.6,1.1-0.4l6.1,2.7
							c0.4,0.2,0.6,0.7,0.4,1.1C1123.3,925.9,1123,926.1,1122.7,926.1z M1155.5,925.2c-0.1,0-0.3,0-0.4-0.1
							c-0.4-0.2-0.5-0.8-0.3-1.1c1.1-1.7,2.2-3.7,3.4-5.7c0.2-0.4,0.7-0.5,1.1-0.3c0.4,0.2,0.5,0.7,0.3,1.1c-1.2,2.1-2.4,4-3.5,5.7
							C1156,925,1155.8,925.2,1155.5,925.2z M1102.4,916.9c-0.1,0-0.2,0-0.3-0.1l-6.1-2.7c-0.4-0.2-0.6-0.7-0.4-1.1
							c0.2-0.4,0.7-0.6,1.1-0.4l6.1,2.7c0.4,0.2,0.6,0.7,0.4,1.1C1103,916.8,1102.7,916.9,1102.4,916.9z M1082.1,907.8
							c-0.1,0-0.2,0-0.3-0.1l-6.1-2.7c-0.4-0.2-0.6-0.7-0.4-1.1c0.2-0.4,0.7-0.6,1.1-0.4l6.1,2.7c0.4,0.2,0.6,0.7,0.4,1.1
							C1082.7,907.6,1082.4,907.8,1082.1,907.8z M1166.5,905.8c-0.1,0-0.3,0-0.4-0.1c-0.4-0.2-0.6-0.7-0.4-1.1c1-1.9,2-3.9,3-5.9
							c0.2-0.4,0.7-0.6,1.1-0.4c0.4,0.2,0.6,0.7,0.4,1.1c-1,2-2,4-3,6C1167.1,905.7,1166.8,905.8,1166.5,905.8z M1061.8,898.7
							c-0.1,0-0.2,0-0.3-0.1l-6.1-2.7c-0.4-0.2-0.6-0.7-0.4-1.1c0.2-0.4,0.7-0.6,1.1-0.4l6.1,2.7c0.4,0.2,0.6,0.7,0.4,1.1
							C1062.4,898.5,1062.1,898.7,1061.8,898.7z M1041.5,889.6c-0.1,0-0.2,0-0.3-0.1l-6.1-2.7c-0.4-0.2-0.6-0.7-0.4-1.1
							c0.2-0.4,0.7-0.6,1.1-0.4l6.1,2.7c0.4,0.2,0.6,0.7,0.4,1.1C1042.1,889.4,1041.8,889.6,1041.5,889.6z M1175.9,885.7
							c-0.1,0-0.2,0-0.3-0.1c-0.4-0.2-0.6-0.7-0.5-1.1c0.8-2,1.6-4.1,2.4-6.2c0.2-0.4,0.6-0.7,1.1-0.5c0.4,0.2,0.7,0.6,0.5,1.1
							c-0.8,2.1-1.6,4.2-2.4,6.2C1176.5,885.5,1176.2,885.7,1175.9,885.7z M1021.2,880.5c-0.1,0-0.2,0-0.3-0.1l-6.1-2.7
							c-0.4-0.2-0.6-0.7-0.4-1.1c0.2-0.4,0.7-0.6,1.1-0.4l6.1,2.7c0.4,0.2,0.6,0.7,0.4,1.1C1021.8,880.3,1021.5,880.5,1021.2,880.5z
							 M1003.3,868.2c-0.3,0-0.6-0.2-0.7-0.4c-1.1-2.1-1.8-4.3-2.1-6.6c-0.1-0.5,0.3-0.9,0.7-0.9c0.5-0.1,0.9,0.3,0.9,0.7
							c0.3,2.1,0.9,4.2,1.9,6c0.2,0.4,0.1,0.9-0.3,1.1C1003.6,868.1,1003.5,868.2,1003.3,868.2z M1177.4,867.3c-0.1,0-0.2,0-0.3-0.1
							l-6.1-2.7c-0.4-0.2-0.6-0.7-0.4-1.1c0.2-0.4,0.7-0.6,1.1-0.4l6.1,2.7c0.4,0.2,0.6,0.7,0.4,1.1
							C1178,867.1,1177.7,867.3,1177.4,867.3z M1157.1,858.3c-0.1,0-0.2,0-0.3-0.1l-6.1-2.7c-0.4-0.2-0.6-0.7-0.4-1.1
							c0.2-0.4,0.7-0.6,1.1-0.4l6.1,2.7c0.4,0.2,0.6,0.7,0.4,1.1C1157.7,858.1,1157.4,858.3,1157.1,858.3z M1136.7,849.3
							c-0.1,0-0.2,0-0.3-0.1l-6.1-2.7c-0.4-0.2-0.6-0.7-0.4-1.1c0.2-0.4,0.7-0.6,1.1-0.4l6.1,2.7c0.4,0.2,0.6,0.7,0.4,1.1
							C1137.3,849.1,1137,849.3,1136.7,849.3z M1004.8,846.9c-0.1,0-0.2,0-0.3-0.1c-0.4-0.2-0.6-0.7-0.5-1.1l2.5-6.2
							c0.2-0.4,0.7-0.6,1.1-0.5c0.4,0.2,0.6,0.7,0.5,1.1l-2.5,6.2C1005.4,846.7,1005.1,846.9,1004.8,846.9z M1116.4,840.3
							c-0.1,0-0.2,0-0.3-0.1l-6.1-2.7c-0.4-0.2-0.6-0.7-0.4-1.1c0.2-0.4,0.7-0.6,1.1-0.4l6.1,2.7c0.4,0.2,0.6,0.7,0.4,1.1
							C1117,840.1,1116.7,840.3,1116.4,840.3z M1096,831.3c-0.1,0-0.2,0-0.3-0.1l-6.1-2.7c-0.4-0.2-0.6-0.7-0.4-1.1
							c0.2-0.4,0.7-0.6,1.1-0.4l6.1,2.7c0.4,0.2,0.6,0.7,0.4,1.1C1096.6,831.1,1096.3,831.3,1096,831.3z M1013.1,826.3
							c-0.1,0-0.2,0-0.3-0.1c-0.4-0.2-0.6-0.7-0.5-1.1l2.5-6.2c0.2-0.4,0.7-0.6,1.1-0.5c0.4,0.2,0.6,0.7,0.5,1.1l-2.5,6.2
							C1013.8,826.1,1013.4,826.3,1013.1,826.3z M1075.7,822.3c-0.1,0-0.2,0-0.3-0.1l-6.1-2.7c-0.4-0.2-0.6-0.7-0.4-1.1
							c0.2-0.4,0.7-0.6,1.1-0.4l6.1,2.7c0.4,0.2,0.6,0.7,0.4,1.1C1076.3,822.1,1076,822.3,1075.7,822.3z M1055.3,813.3
							c-0.1,0-0.2,0-0.3-0.1l-6.1-2.7c-0.4-0.2-0.6-0.7-0.4-1.1c0.2-0.4,0.7-0.6,1.1-0.4l6.1,2.7c0.4,0.2,0.6,0.7,0.4,1.1
							C1056,813.1,1055.6,813.3,1055.3,813.3z M1021.4,805.6c-0.1,0-0.2,0-0.3-0.1c-0.4-0.2-0.6-0.7-0.5-1.1l2.5-6.2
							c0.2-0.4,0.7-0.6,1.1-0.5c0.4,0.2,0.6,0.7,0.5,1.1l-2.5,6.2C1022.1,805.4,1021.8,805.6,1021.4,805.6z M1035,804.3
							c-0.1,0-0.2,0-0.3-0.1l-6.1-2.7c-0.4-0.2-0.6-0.7-0.4-1.1c0.2-0.4,0.7-0.6,1.1-0.4l6.1,2.7c0.4,0.2,0.6,0.7,0.4,1.1
							C1035.6,804.1,1035.3,804.3,1035,804.3z"/>
						
							<linearGradient id="SVGID_22_" gradientUnits="userSpaceOnUse" x1="1490.9166" y1="351.7827" x2="1489.8594" y2="326.144" gradientTransform="matrix(0.9147 0.4042 -0.4042 0.9147 -138.4618 -134.2112)">
							<stop  offset="0" style="stop-color:#4042E2"/>
							<stop  offset="1" style="stop-color:#4F52FF"/>
						</linearGradient>
						<path class="st29" d="M1076.1,774l2.3-4.1c0.9-0.8,2.1-1.1,3.3-0.8c4.4,1.2,15.1,4.5,18.3,10.3l-1.4,5.3L1076.1,774z"/>
						
							<linearGradient id="SVGID_23_" gradientUnits="userSpaceOnUse" x1="1489.579" y1="313.291" x2="1494.8649" y2="386.765" gradientTransform="matrix(0.9147 0.4042 -0.4042 0.9147 -138.4618 -134.2112)">
							<stop  offset="0" style="stop-color:#4042E2"/>
							<stop  offset="1" style="stop-color:#4F52FF"/>
						</linearGradient>
						<path class="st30" d="M1090.7,775.6c-1-0.2-2-0.6-2.8-1.3c-1-0.8-1.4-2.2-0.9-3.3l5.9-13.3l6.8,3l-5.9,13.3
							C1093.3,775.1,1092,775.8,1090.7,775.6z"/>
						
							<linearGradient id="SVGID_24_" gradientUnits="userSpaceOnUse" x1="1562.3397" y1="348.8408" x2="1561.2825" y2="323.2024" gradientTransform="matrix(0.9147 0.4042 -0.4042 0.9147 -138.4618 -134.2112)">
							<stop  offset="0" style="stop-color:#4042E2"/>
							<stop  offset="1" style="stop-color:#4F52FF"/>
						</linearGradient>
						<path class="st31" d="M1141.6,802.9l2.3-4.1c0.9-0.8,2.1-1.1,3.3-0.8c4.4,1.2,15.1,4.5,18.3,10.3l-1.4,5.3L1141.6,802.9z"/>
						
							<linearGradient id="SVGID_25_" gradientUnits="userSpaceOnUse" x1="1560.8099" y1="308.1705" x2="1566.0958" y2="381.644" gradientTransform="matrix(0.9147 0.4042 -0.4042 0.9147 -138.4618 -134.2112)">
							<stop  offset="0" style="stop-color:#4042E2"/>
							<stop  offset="1" style="stop-color:#4F52FF"/>
						</linearGradient>
						<path class="st32" d="M1156.2,804.5c-1-0.2-2-0.6-2.8-1.3c-1-0.8-1.4-2.2-0.9-3.3l6.5-14.7l6.8,3l-6.5,14.7
							C1158.7,804,1157.5,804.7,1156.2,804.5z"/>
						
							<linearGradient id="SVGID_26_" gradientUnits="userSpaceOnUse" x1="1531.4709" y1="272.3938" x2="1524.3358" y2="324.7177" gradientTransform="matrix(0.9147 0.4042 -0.4042 0.9147 -138.4618 -134.2112)">
							<stop  offset="0" style="stop-color:#A22B25"/>
							<stop  offset="1" style="stop-color:#C0423C"/>
						</linearGradient>
						<path class="st33" d="M1090.8,760.6l73.7,29.7c1.7,0.7,3.6,0.1,4.6-1.4c1.4-2.1,3.3-5.3,4.3-9.1c1.2-4.3-1-8.8-5-10.7
							c-13.4-6.3-47.9-21.6-70.3-22.4c-2.4-0.1-4.6,1-6,2.8c-1.4,1.8-2.9,4.3-3.4,7.3C1088.4,758.4,1089.3,760,1090.8,760.6z"/>
						<linearGradient id="SVGID_27_" gradientUnits="userSpaceOnUse" x1="1013.573" y1="820.7197" x2="1199.9259" y2="820.7197">
							<stop  offset="0" style="stop-color:#A22B25"/>
							<stop  offset="1" style="stop-color:#C0423C"/>
						</linearGradient>
						<path class="st34" d="M1043.1,757.4c23.6,10.1,125.6,53.9,153.6,70.5c2.4,1.4,3.7,4.2,3.1,6.9c-1.7,8.7-6.3,28.5-14.8,46.5
							c-1.1,2.4-3.9,3.7-6.5,3.1l-73-17l-23.9-10.6l-65.4-46c-2.3-1.6-3.2-4.6-2.2-7.2c3.6-9.3,12.3-31.1,20.9-43.8
							C1036.7,757.2,1040.1,756.1,1043.1,757.4z"/>
						<linearGradient id="SVGID_28_" gradientUnits="userSpaceOnUse" x1="1022.7413" y1="821.2921" x2="1194.4137" y2="821.2921">
							<stop  offset="0" style="stop-color:#FE7062"/>
							<stop  offset="1" style="stop-color:#FF928E"/>
						</linearGradient>
						<path class="st35" d="M1180.2,877.5c-0.1,0-0.2,0-0.3-0.1c-0.4-0.2-0.6-0.7-0.4-1.1c0.9-1.9,1.7-4,2.6-6.1
							c0.2-0.4,0.7-0.6,1.1-0.5c0.4,0.2,0.6,0.7,0.5,1.1c-0.8,2.1-1.7,4.2-2.6,6.2C1180.8,877.3,1180.5,877.5,1180.2,877.5z
							 M1165.9,875.8c-0.1,0-0.1,0-0.2,0l-6.5-1.5c-0.4-0.1-0.7-0.6-0.6-1c0.1-0.5,0.6-0.7,1-0.6l6.5,1.5c0.4,0.1,0.7,0.6,0.6,1
							C1166.6,875.5,1166.3,875.8,1165.9,875.8z M1144.2,870.7c-0.1,0-0.1,0-0.2,0l-6.5-1.5c-0.4-0.1-0.7-0.6-0.6-1
							c0.1-0.4,0.5-0.7,1-0.6l6.5,1.5c0.4,0.1,0.7,0.6,0.6,1C1145,870.5,1144.6,870.7,1144.2,870.7z M1122.6,865.7
							c-0.1,0-0.1,0-0.2,0l-6.5-1.5c-0.4-0.1-0.7-0.6-0.6-1c0.1-0.5,0.6-0.7,1-0.6l6.5,1.5c0.4,0.1,0.7,0.6,0.6,1
							C1123.3,865.4,1123,865.7,1122.6,865.7z M1101.3,859.4c-0.1,0-0.2,0-0.3-0.1l-6.1-2.7c-0.4-0.2-0.6-0.7-0.4-1.1
							c0.2-0.4,0.7-0.6,1.1-0.4l6.1,2.7c0.4,0.2,0.6,0.7,0.4,1.1C1101.9,859.2,1101.6,859.4,1101.3,859.4z M1187.9,856.7
							c-0.1,0-0.2,0-0.2,0c-0.4-0.1-0.7-0.6-0.6-1c0.7-2.2,1.3-4.3,1.9-6.4c0.1-0.4,0.6-0.7,1-0.6c0.4,0.1,0.7,0.6,0.6,1
							c-0.6,2.1-1.2,4.2-1.9,6.4C1188.6,856.4,1188.3,856.7,1187.9,856.7z M1084.8,852.1c-0.2,0-0.3,0-0.5-0.2l-5.5-3.8
							c-0.4-0.3-0.5-0.8-0.2-1.2c0.3-0.4,0.8-0.5,1.2-0.2l5.5,3.8c0.4,0.3,0.5,0.8,0.2,1.2C1085.3,852,1085,852.1,1084.8,852.1z
							 M1066.6,839.3c-0.2,0-0.3,0-0.5-0.2l-5.5-3.8c-0.4-0.3-0.5-0.8-0.2-1.2c0.3-0.4,0.8-0.5,1.2-0.2l5.5,3.8
							c0.4,0.3,0.5,0.8,0.2,1.2C1067.1,839.2,1066.8,839.3,1066.6,839.3z M1193.4,835.1c-0.1,0-0.1,0-0.2,0c-0.5-0.1-0.7-0.5-0.6-1
							l0.1-0.2c-1.3-0.8-2.9-1.6-4.6-2.6c-0.4-0.2-0.6-0.7-0.3-1.1c0.2-0.4,0.7-0.6,1.1-0.3c1.9,1,3.5,2,5,2.8
							c0.3,0.2,0.5,0.6,0.5,0.9l-0.2,0.9C1194.2,834.8,1193.8,835.1,1193.4,835.1z M1193,834.1L1193,834.1L1193,834.1z
							 M1048.4,826.5c-0.2,0-0.3,0-0.5-0.2l-5.5-3.8c-0.4-0.3-0.5-0.8-0.2-1.2c0.3-0.4,0.8-0.5,1.2-0.2l5.5,3.8
							c0.4,0.3,0.5,0.8,0.2,1.2C1048.9,826.4,1048.6,826.5,1048.4,826.5z M1174.7,824.2c-0.1,0-0.2,0-0.4-0.1
							c-1.9-0.9-3.9-1.9-6-2.9c-0.4-0.2-0.6-0.7-0.4-1.1c0.2-0.4,0.7-0.6,1.1-0.4c2.1,1,4.1,2,6,2.9c0.4,0.2,0.6,0.7,0.4,1.1
							C1175.3,824.1,1175,824.2,1174.7,824.2z M1154.6,814.6c-0.1,0-0.2,0-0.4-0.1c-2-0.9-4-1.9-6-2.8c-0.4-0.2-0.6-0.7-0.4-1.1
							c0.2-0.4,0.7-0.6,1.1-0.4c2.1,1,4.1,1.9,6.1,2.8c0.4,0.2,0.6,0.7,0.4,1.1C1155.2,814.4,1154.9,814.6,1154.6,814.6z
							 M1030.2,813.7c-0.2,0-0.3,0-0.5-0.2l-5.5-3.8c-0.4-0.3-0.5-0.8-0.2-1.2c0.3-0.4,0.8-0.5,1.2-0.2l5.5,3.8
							c0.4,0.3,0.5,0.8,0.2,1.2C1030.7,813.6,1030.4,813.7,1030.2,813.7z M1134.4,805.3c-0.1,0-0.2,0-0.3-0.1l-6.1-2.8
							c-0.4-0.2-0.6-0.7-0.4-1.1c0.2-0.4,0.7-0.6,1.1-0.4l6.1,2.8c0.4,0.2,0.6,0.7,0.4,1.1C1135,805.1,1134.7,805.3,1134.4,805.3z
							 M1023.6,797.5c-0.1,0-0.2,0-0.3-0.1c-0.4-0.2-0.6-0.7-0.5-1.1c0.8-1.9,1.7-4,2.6-6.2c0.2-0.4,0.7-0.6,1.1-0.4
							c0.4,0.2,0.6,0.7,0.4,1.1c-0.9,2.1-1.8,4.2-2.6,6.1C1024.2,797.3,1023.9,797.5,1023.6,797.5z M1114.1,796.1
							c-0.1,0-0.2,0-0.3-0.1l-6.1-2.7c-0.4-0.2-0.6-0.7-0.4-1.1c0.2-0.4,0.7-0.6,1.1-0.4l6.1,2.7c0.4,0.2,0.6,0.7,0.4,1.1
							C1114.8,796,1114.5,796.1,1114.1,796.1z M1093.8,787.1c-0.1,0-0.2,0-0.3-0.1l-6.1-2.7c-0.4-0.2-0.6-0.7-0.4-1.1
							c0.2-0.4,0.7-0.6,1.1-0.4l6.1,2.7c0.4,0.2,0.6,0.7,0.4,1.1C1094.4,786.9,1094.1,787.1,1093.8,787.1z M1073.4,778.2
							c-0.1,0-0.2,0-0.3-0.1l-6.1-2.7c-0.4-0.2-0.6-0.7-0.4-1.1c0.2-0.4,0.7-0.6,1.1-0.4l6.1,2.7c0.4,0.2,0.6,0.7,0.4,1.1
							C1074,778,1073.7,778.2,1073.4,778.2z M1032.7,777.2c-0.1,0-0.3,0-0.4-0.1c-0.4-0.2-0.6-0.7-0.4-1.1c1-2,2.1-4,3.1-5.9
							c0.2-0.4,0.7-0.5,1.1-0.3c0.4,0.2,0.5,0.7,0.3,1.1c-1,1.9-2.1,3.9-3.1,5.9C1033.3,777,1033,777.2,1032.7,777.2z M1053,769.4
							c-0.1,0-0.2,0-0.3-0.1l-6.1-2.6c-0.4-0.2-0.6-0.7-0.4-1.1c0.2-0.4,0.7-0.6,1.1-0.4l6.1,2.6c0.4,0.2,0.6,0.7,0.4,1.1
							C1053.6,769.2,1053.3,769.4,1053,769.4z"/>
						
							<linearGradient id="SVGID_29_" gradientUnits="userSpaceOnUse" x1="1535.5171" y1="343.2844" x2="1525.2101" y2="424.9477" gradientTransform="matrix(0.9147 0.4042 -0.4042 0.9147 -138.4618 -134.2112)">
							<stop  offset="0" style="stop-color:#FE7062"/>
							<stop  offset="1" style="stop-color:#FF928E"/>
						</linearGradient>
						<path class="st36" d="M1098.9,876.4l-21-9.3c-2.7-1.2-4.2-4.3-3.3-7.1l6.5-21.2c1-3.4,4.8-5.1,8.1-3.7l25.2,11.1
							c3.2,1.4,4.5,5.2,2.8,8.3l-10.7,19.4C1105,876.6,1101.7,877.7,1098.9,876.4z"/>
						<linearGradient id="SVGID_30_" gradientUnits="userSpaceOnUse" x1="1104.7974" y1="836.7208" x2="1062.2168" y2="914.1401">
							<stop  offset="0" style="stop-color:#FE7062"/>
							<stop  offset="1" style="stop-color:#FF928E"/>
						</linearGradient>
						<path class="st37" d="M1097.9,871.6l-15.9-7c-2.1-0.9-3.2-3.3-2.5-5.4l4.9-16.2c0.8-2.6,3.7-3.9,6.1-2.8l19.2,8.5
							c2.4,1.1,3.4,4,2.1,6.3l-8.2,14.7C1102.6,871.7,1100.1,872.5,1097.9,871.6z"/>
					</g>
					<linearGradient id="SVGID_31_" gradientUnits="userSpaceOnUse" x1="1455.6785" y1="342.9803" x2="1591.8446" y2="342.9803">
						<stop  offset="0" style="stop-color:#FF928E"/>
						<stop  offset="1" style="stop-color:#FEB3B1"/>
					</linearGradient>
					<path class="st38" d="M1457,385l90.4-70.6c0.6-0.4,1-1,1.2-1.7l9.6-31.2c0.3-0.8,0.8-1.6,1.6-2l6.2-3.5c0.6-0.4,1.3-0.5,2-0.4
						l19.3,1.9c1.6,0.2,2.8,1.3,3.1,2.9l1.5,9c0.1,0.9-0.1,1.8-0.6,2.5l-2.6,3.7c-0.7,1.1-0.8,2.5-0.2,3.6l0,0
						c0.7,1.3,0.5,2.9-0.4,3.9c-3.2,3.6-11.2,11.4-24.1,17c-0.4,0.2-0.8,0.5-1.2,0.8l-81.3,88.3c-1.3,1.4-3.5,1.5-4.9,0.1
						l-19.8-19.2C1455.2,388.7,1455.4,386.3,1457,385z"/>
					<linearGradient id="SVGID_32_" gradientUnits="userSpaceOnUse" x1="1389.1243" y1="467.2456" x2="1621.382" y2="221.0528">
						<stop  offset="0" style="stop-color:#4042E2"/>
						<stop  offset="1" style="stop-color:#4F52FF"/>
					</linearGradient>
					<path class="st39" d="M1324.3,492.9l128.6-107.8c2.5-2.1,6.2-2.1,8.7,0.1c5.4,4.8,14.5,13.5,18.7,21.3c1.6,2.9,1,6.5-1.4,8.8
						l-133.1,127.4L1324.3,492.9z"/>
					<linearGradient id="SVGID_33_" gradientUnits="userSpaceOnUse" x1="989.1386" y1="823.3262" x2="1267.8477" y2="602.6814">
						<stop  offset="0" style="stop-color:#4042E2"/>
						<stop  offset="1" style="stop-color:#4F52FF"/>
					</linearGradient>
					<path class="st40" d="M1345.8,490.8c0,0,22.4,22.8,18.5,62.2c-1.1,11.6-5.7,22.6-12.8,31.8l-112.8,145.6
						c-2.6,3.4-6.4,5.5-10.6,6.1c-16.6,2-60.7,6-92-4.3c-2.5-0.8-3.6-3.7-2.3-6l102.6-180.5l62.1-72.3
						C1298.5,473.3,1328.1,463.1,1345.8,490.8z"/>
					<path class="st41" d="M1204.8,681.2c-0.5,0-0.9-0.1-1.3-0.4c-1-0.7-1.2-2.1-0.5-3.1c1-1.3,98.2-132.3,104.8-148.2
						c6-14.6-8.1-25.8-8.7-26.3c-1-0.8-1.1-2.2-0.4-3.1c0.8-1,2.1-1.1,3.1-0.4c0.2,0.1,17.4,13.8,10.1,31.5
						c-6.8,16.5-101.3,143.8-105.3,149.2C1206.2,680.9,1205.5,681.2,1204.8,681.2z"/>
					<linearGradient id="SVGID_34_" gradientUnits="userSpaceOnUse" x1="1107.1545" y1="729.4557" x2="1201.4146" y2="729.4557">
						<stop  offset="0" style="stop-color:#FF928E"/>
						<stop  offset="1" style="stop-color:#FEB3B1"/>
					</linearGradient>
					<path class="st42" d="M1201.4,682.5l-47.5,58.9c0,0-7,38.1-13,43.3c-6.1,5.2-23.3,8.6-27.8,0c-4-7.6-5.6-15.6-5.9-17.4
						l15.4,6.5c0,0-0.4-2.3-0.8-5.2c0,0,0-0.1,0-0.1c-0.1-0.4-0.2-0.8-0.3-1.2c-0.5-2.4-1.1-6.1-1.2-10c-0.4-7.2,0.6-15.4,5.8-19.5
						c10.4-8.1,13.1-9.4,13.1-9.4l27.5-59.5C1166.7,669,1185.7,680.9,1201.4,682.5z"/>
					<linearGradient id="SVGID_35_" gradientUnits="userSpaceOnUse" x1="866.6306" y1="700.1895" x2="1172.4371" y2="546.6354">
						<stop  offset="0" style="stop-color:#A22B25"/>
						<stop  offset="1" style="stop-color:#C0423C"/>
					</linearGradient>
					<path class="st43" d="M991.1,663.1c-2.6,0.5-4,3.4-2.9,5.8c5.5,11,21.6,35.4,54.8,27.7c42.5-9.8,172.2-107.9,201.6-134.7
						c29.4-26.8,68.3-60.2,87.3-55.5c19,4.7,7.6-6.4-5.6-15.2c-10.2-6.9-15.5-16.2-12.7-18.9c0.2-0.2,0.3-0.6,0.2-0.9
						c-0.1-0.3-0.4-0.5-0.7-0.6c-8.7-1.2-28.5-1.3-54.9,13.2c-35.3,19.5-207.8,86-265.6,66.8c-2.1-0.7-4.4,0.7-4.8,2.9
						c-2.3,13.2-5.8,54.3,28,100.7C1015.8,654.3,1002.7,660.9,991.1,663.1z"/>
					<linearGradient id="SVGID_36_" gradientUnits="userSpaceOnUse" x1="1020.9417" y1="636.4166" x2="1075.3525" y2="636.4166">
						<stop  offset="0" style="stop-color:#E1473D"/>
						<stop  offset="1" style="stop-color:#E9605A"/>
					</linearGradient>
					<path class="st44" d="M1022,653.1l-1.1-2c0.4-0.2,43.8-23.8,53-31.5l1.4,1.7C1066,629.2,1023.8,652.2,1022,653.1z"/>
					<g>
						
							<linearGradient id="SVGID_37_" gradientUnits="userSpaceOnUse" x1="1319.7749" y1="-408.4685" x2="1375.861" y2="-466.0113" gradientTransform="matrix(0.963 0.2697 -0.2697 0.963 -79.5675 521.8066)">
							<stop  offset="0" style="stop-color:#FF928E"/>
							<stop  offset="1" style="stop-color:#FEB3B1"/>
						</linearGradient>
						<path class="st45" d="M1351.2,422.9l-33.7,47.6c-2.2,3.1-1.9,7.3,0.7,10.1c4.5,4.8,12.2,11.7,20.5,13.2
							c2.6,0.5,5.2-0.6,6.6-2.8l17.9-27.5C1363.2,463.5,1366.6,420.2,1351.2,422.9z"/>
						
							<linearGradient id="SVGID_38_" gradientUnits="userSpaceOnUse" x1="565.6312" y1="380.1608" x2="494.6131" y2="474.1119" gradientTransform="matrix(0.6854 -0.7281 0.7281 0.6854 687.0051 544.7815)">
							<stop  offset="0" style="stop-color:#FF928E"/>
							<stop  offset="1" style="stop-color:#FEB3B1"/>
						</linearGradient>
						<path class="st46" d="M1360.7,383.1c0.7,0.6,28.8,55.8,28.8,55.8l-31.8,15.4l-34.4-48.3
							C1323.3,405.9,1349.3,372.3,1360.7,383.1z"/>
						
							<linearGradient id="SVGID_39_" gradientUnits="userSpaceOnUse" x1="511.3934" y1="402.7231" x2="596.2255" y2="402.7231" gradientTransform="matrix(0.6854 -0.7281 0.7281 0.6854 687.0051 544.7815)">
							<stop  offset="0" style="stop-color:#020039"/>
							<stop  offset="1" style="stop-color:#090056"/>
						</linearGradient>
						<path class="st47" d="M1337.4,407.3c-0.6,1.5-0.4,3.1,0.4,4.5l15.9,26.5c0.2,0.4,0.5,0.8,0.9,1.1c1.9,1.8,8.4,6.9,13.4-0.1
							c4.3-5.9,8.3-11.3,12.5-13.6c2.5-1.3,5.6-0.3,6.9,2.3c2.6,5.2,7.7,15.8,10.9,25.8c0.8,2.5-0.5,5.2-2.9,6.2
							c-6.4,2.6-19.2,7.3-30.5,8.9c-1.9,0.3-3.7-0.5-4.8-2c-4.9-6.7-18.6-25.3-23.3-29.9c-4.3-4.3-12.4-2.7-16-1.7
							c-1.4,0.4-2.8,0.2-4.1-0.5c-3.7-2.2-10.1-7.7-4.2-17c1.5-2.3,0.7-5.4-1.6-6.9c-4.1-2.7-8.5-7.8-4.3-15.9
							c4.3-8.3,11.9-9,17.2-8.4c2.3,0.3,4.6-0.9,5.5-3.1c0.4-1,1.2-1.8,2.6-2.1c2.7-0.6,4.5-3.1,4-5.8c-0.9-4.7-0.2-10.8,7.3-14.9
							c13.7-7.6,25.8,4.8,28.8,15.1c3.1,10.4-12.3,17.7-22,19C1342.8,395.5,1338.9,403.2,1337.4,407.3z"/>
						
							<linearGradient id="SVGID_40_" gradientUnits="userSpaceOnUse" x1="461.6173" y1="454.563" x2="518.5798" y2="396.121" gradientTransform="matrix(0.6854 -0.7281 0.7281 0.6854 687.0051 544.7815)">
							<stop  offset="0" style="stop-color:#FF928E"/>
							<stop  offset="1" style="stop-color:#FEB3B1"/>
						</linearGradient>
						<path class="st48" d="M1342.6,446.5c0,0-6.1-17.9-13.9-17.2c-7.8,0.7-14,8.4-4.3,17.2C1336.4,457.4,1342.6,446.5,1342.6,446.5
							z"/>
					</g>
					<linearGradient id="SVGID_41_" gradientUnits="userSpaceOnUse" x1="1569.254" y1="298.7276" x2="1586.7922" y2="298.7276">
						<stop  offset="0" style="stop-color:#FF928E"/>
						<stop  offset="1" style="stop-color:#FEB3B1"/>
					</linearGradient>
					<path class="st49" d="M1570,302.8c-0.1,0-0.3,0-0.4-0.1c-0.4-0.2-0.5-0.7-0.3-1.1c0.2-0.3,4.8-8.5,10.5-6.7
						c4.5,1.4,5.7,0.9,5.8,0.9c0.4-0.2,0.8-0.1,1.1,0.2c0.2,0.4,0.1,0.9-0.3,1.1c-0.4,0.2-1.9,0.9-7-0.7c-4.5-1.4-8.6,5.9-8.6,6
						C1570.6,302.7,1570.3,302.8,1570,302.8z"/>
				</g>
			</g>
		</g>
		<g>
			<g>
				<path class="st7" d="M226.2,1070.5c-4.6,6.8-22.7,159.7-25.6,216.2c-0.2,3.8,2.9,7,6.7,7l0,0c3.3,0,6.1-2.4,6.6-5.7l33.2-212.7
					L226.2,1070.5z"/>
				<path class="st7" d="M372.1,1070.5c4.6,6.8,22.7,159.7,25.6,216.2c0.2,3.8-2.9,7-6.7,7l0,0c-3.3,0-6.1-2.4-6.6-5.7l-33.2-212.7
					L372.1,1070.5z"/>
				<path class="st7" d="M198.8,1058.6l0,1.7c-0.1,12,10.2,21.8,23.2,22.1l153.4,2.6c12.8,0.2,23.4-9,24-20.8l0.1-1.5
					c0.6-12.3-9.8-22.7-23.1-22.9l-153.5-2.8C209.7,1036.6,198.9,1046.4,198.8,1058.6z"/>
			</g>
			<g>
				<g>
					<linearGradient id="SVGID_42_" gradientUnits="userSpaceOnUse" x1="452.4973" y1="1280.6719" x2="563.7331" y2="1280.6719">
						<stop  offset="0" style="stop-color:#09005D"/>
						<stop  offset="1" style="stop-color:#1A0F91"/>
					</linearGradient>
					<path class="st50" d="M497.2,1281.1c-27.3,0-39.3-2.3-44.7-4.5c1,4.5,5,8,10.1,8H559c3.2,0,5.3-3.1,4.5-5.9
						C552.6,1279.6,529.2,1281.1,497.2,1281.1z"/>
					<linearGradient id="SVGID_43_" gradientUnits="userSpaceOnUse" x1="538.2" y1="1066.7778" x2="507.8073" y2="1276.764">
						<stop  offset="0" style="stop-color:#09005D"/>
						<stop  offset="1" style="stop-color:#1A0F91"/>
					</linearGradient>
					<path class="st51" d="M563.6,1278.8c-0.2-0.6-0.4-1.1-0.8-1.6c-7.3-9.4-22.1-24.1-42.2-23.8c-29.4,0.4-39.7,3.6-62.5,0.2
						l-5.4,17.9c-0.5,1.8-0.6,3.6-0.2,5.3c5.4,2.1,17.5,4.5,44.7,4.5C529.2,1281.1,552.6,1279.6,563.6,1278.8z"/>
				</g>
				<linearGradient id="SVGID_44_" gradientUnits="userSpaceOnUse" x1="458.0537" y1="1247.1508" x2="488.1507" y2="1247.1508">
					<stop  offset="0" style="stop-color:#FF928E"/>
					<stop  offset="1" style="stop-color:#FEB3B1"/>
				</linearGradient>
				<path class="st52" d="M464.7,1234.2l-6.6,22.5c0,0,14.7,6.7,27.6,1.3l2.5-19.5L464.7,1234.2z"/>
				<g>
					<linearGradient id="SVGID_45_" gradientUnits="userSpaceOnUse" x1="626.9649" y1="1258.6277" x2="716.7751" y2="1258.6277">
						<stop  offset="0" style="stop-color:#09005D"/>
						<stop  offset="1" style="stop-color:#1A0F91"/>
					</linearGradient>
					<path class="st53" d="M664.6,1267c-21.3,17.1-32.1,22.8-37.7,24.5c3.6,2.8,8.9,3.1,12.9-0.1L715,1231c2.5-2,2.2-5.7-0.2-7.4
						C706.8,1231.1,689.6,1246.9,664.6,1267z"/>
					<linearGradient id="SVGID_46_" gradientUnits="userSpaceOnUse" x1="688.7405" y1="1088.5663" x2="658.3478" y2="1298.5527">
						<stop  offset="0" style="stop-color:#09005D"/>
						<stop  offset="1" style="stop-color:#1A0F91"/>
					</linearGradient>
					<path class="st54" d="M714.9,1223.6c-0.5-0.3-1-0.6-1.6-0.8c-11.6-2.7-32.3-4.9-47.7,7.9c-22.7,18.7-28.7,27.6-48.6,39.3
						l6.9,17.2c0.7,1.8,1.8,3.2,3.2,4.2c5.5-1.7,16.4-7.5,37.7-24.5C689.6,1246.9,706.8,1231.1,714.9,1223.6z"/>
				</g>
				<linearGradient id="SVGID_47_" gradientUnits="userSpaceOnUse" x1="291.632" y1="1111.3445" x2="529.8837" y2="1111.3445">
					<stop  offset="0" style="stop-color:#09005D"/>
					<stop  offset="1" style="stop-color:#1A0F91"/>
				</linearGradient>
				<path class="st55" d="M323.1,977.7c0,0,163.3,13.3,196.8,29.1c33.5,15.8-27.3,236.7-27.3,236.7s-9.1,4.4-29.4-1.9
					c0,0,20.8-163.1,5.3-198.4l-176.8-28.9L323.1,977.7z"/>
				<linearGradient id="SVGID_48_" gradientUnits="userSpaceOnUse" x1="600.6073" y1="1249.6837" x2="636.539" y2="1249.6837">
					<stop  offset="0" style="stop-color:#FF928E"/>
					<stop  offset="1" style="stop-color:#FEB3B1"/>
				</linearGradient>
				<path class="st56" d="M600.6,1239c1.5,1.4,16.2,31,16.2,31s16.4-3.5,19.7-13.9l-14.7-26.8L600.6,1239z"/>
				<linearGradient id="SVGID_49_" gradientUnits="userSpaceOnUse" x1="508.0482" y1="1012.0797" x2="246.4869" y2="1308.6385">
					<stop  offset="0" style="stop-color:#09005D"/>
					<stop  offset="1" style="stop-color:#1A0F91"/>
				</linearGradient>
				<path class="st57" d="M224.7,976.3c0,0-5.3,12.8-5.1,29.8c0.3,23.5,19.2,42.6,42.7,43.8l193,8.8c4.1,0.2,7.5,3,8.5,7
					c4.5,17.5,26.7,71.4,135.1,178.9c2.9,2.9,7.4,3.3,10.8,1.2l15.4-9.7c1.6-1,2.1-3.1,1.2-4.8L514,1039.3
					c-5.9-9.7-15.4-16.8-26.4-19.6l-164.5-42L224.7,976.3z"/>
				<linearGradient id="SVGID_50_" gradientUnits="userSpaceOnUse" x1="373.179" y1="717.9933" x2="462.7263" y2="717.9933">
					<stop  offset="0" style="stop-color:#FF928E"/>
					<stop  offset="1" style="stop-color:#FEB3B1"/>
				</linearGradient>
				<path class="st58" d="M448.6,680.9c0,0-54.4,32.3-75.5,50l43.6,24.3c0,0,23.5-27.2,46-38.5L448.6,680.9z"/>
				<linearGradient id="SVGID_51_" gradientUnits="userSpaceOnUse" x1="221.2249" y1="854.009" x2="563.4417" y2="854.009">
					<stop  offset="0" style="stop-color:#4042E2"/>
					<stop  offset="1" style="stop-color:#4F52FF"/>
				</linearGradient>
				<path class="st59" d="M221.2,977.7c0,0,52.1,12.7,101.8,0c0,0,69.6-93.6,96.5-119c0,0,42.9,67.8,138.5,77.4l5.3-11.9
					c0,0-76.1-35.1-99.5-89c-23.4-53.9-32.8-76.9-54.1-91c-13.3-8.8-21.2-14.7-25.3-18c-2.2-1.8-5.4-2-7.8-0.5
					C354,739.5,247.6,812.4,221.2,977.7z"/>
				<path class="st41" d="M416.8,856.2c-0.7,0-1.3-0.3-1.8-0.9c-16.5-21.5-26-46-26.1-46.2c-0.4-1.1,0.1-2.4,1.3-2.9
					c1.1-0.4,2.4,0.1,2.9,1.3c0.1,0.2,9.4,24.1,25.4,45.1c0.7,1,0.6,2.4-0.4,3.1C417.7,856.1,417.2,856.2,416.8,856.2z"/>
				<linearGradient id="SVGID_52_" gradientUnits="userSpaceOnUse" x1="552.3633" y1="917.0817" x2="635.3614" y2="917.0817">
					<stop  offset="0" style="stop-color:#FF928E"/>
					<stop  offset="1" style="stop-color:#FEB3B1"/>
				</linearGradient>
				<path class="st60" d="M552.4,917.9l10.8-2.9l32.7-7.6c3.9-0.9,8.1-0.2,11.5,1.9l28.1,17.7l-77.6-0.1L552.4,917.9z"/>
				<g>
					
						<linearGradient id="SVGID_53_" gradientUnits="userSpaceOnUse" x1="159.6159" y1="2286.0723" x2="78.8442" y2="2392.9265" gradientTransform="matrix(0.9897 -0.1428 0.1428 0.9897 1.6639 -1579.7996)">
						<stop  offset="0" style="stop-color:#FF928E"/>
						<stop  offset="1" style="stop-color:#FEB3B1"/>
					</linearGradient>
					<path class="st61" d="M501.7,657.2c0.2,1.1-13.9,70-13.9,70l-39.2-8.9l3.6-67.4C452.2,651,499.2,639.6,501.7,657.2z"/>
					
						<linearGradient id="SVGID_54_" gradientUnits="userSpaceOnUse" x1="97.9293" y1="2311.8481" x2="194.4122" y2="2311.8481" gradientTransform="matrix(0.9897 -0.1428 0.1428 0.9897 1.6639 -1579.7996)">
						<stop  offset="0" style="stop-color:#020039"/>
						<stop  offset="1" style="stop-color:#090056"/>
					</linearGradient>
					<path class="st62" d="M461,666l-4.7,35.3c-0.1,0.5-0.1,0.9,0,1.4c0.4,2.8,2.5,12.2,12,9.5c8.6-2.4,16.5-4.5,22-2.9
						c2.5,0.8,3.9,3.2,3.4,5.8c-1.3,6.3-4.4,20.3-9,32.1c-0.9,2.4-3.6,3.7-6,2.9c-7.4-2.2-23-7.2-34.6-14.1
						c-1.6-0.9-2.5-2.6-2.4-4.5c0.4-8.9,1.4-36,0.5-43.6c-0.8-7.1-9.6-11.4-13.4-12.9c-1.2-0.5-2.2-1.5-2.7-2.7
						c-1.8-4.4-4.2-14.6,8.7-18.8c2.7-0.9,4.1-3.8,3.2-6.4c-1.9-5.3-2.7-13.4,7.2-17.9c10.1-4.5,17.7,0.9,21.8,5.2
						c1.6,1.8,4.3,2,6.3,0.7c1.2-0.7,2.7-1,4.5,0.2c2.4,1.5,5.7,0.5,6.9-2.1c2.4-5,7.4-10.3,17.3-8.6c17.6,3,19.6,22.5,14.9,33.9
						c-4.6,11.4-23.5,7.1-33,1.3c-7.2-4.4-16.5,0.2-20.6,2.7C462.1,663.2,461.2,664.5,461,666z"/>
					
						<linearGradient id="SVGID_55_" gradientUnits="userSpaceOnUse" x1="41.3173" y1="2370.6924" x2="106.1026" y2="2304.2244" gradientTransform="matrix(0.9897 -0.1428 0.1428 0.9897 1.6639 -1579.7996)">
						<stop  offset="0" style="stop-color:#FF928E"/>
						<stop  offset="1" style="stop-color:#FEB3B1"/>
					</linearGradient>
					<path class="st63" d="M440.7,700.8c0,0,7.2-20.2-0.2-25.2c-7.4-5-18.4-2.4-16,12.3C427.5,706.1,440.7,700.8,440.7,700.8z"/>
				</g>
			</g>
			<g>
				<g>
					<linearGradient id="SVGID_56_" gradientUnits="userSpaceOnUse" x1="720.1655" y1="614.8308" x2="647.0038" y2="819.2184">
						<stop  offset="0" style="stop-color:#09005D"/>
						<stop  offset="1" style="stop-color:#1A0F91"/>
					</linearGradient>
					<path class="st64" d="M522.4,942.3c0.1,0,0.3,0,0.4,0l165.7-0.2c4.1,0,7.4-3.3,7.4-7.4c0-4.1-3.3-7.5-7.4-7.4l-165.7,0.2
						c-4.1,0-7.4,3.3-7.4,7.4C515.4,938.9,518.5,942.1,522.4,942.3z"/>
				</g>
				<g>
					
						<linearGradient id="SVGID_57_" gradientUnits="userSpaceOnUse" x1="5696.1821" y1="-11805.5254" x2="5474.2202" y2="-11590.9316" gradientTransform="matrix(0.6475 -1.2297 -1.2274 -0.6463 7293.9038 -7927.8447)">
						<stop  offset="0" style="stop-color:#09005D"/>
						<stop  offset="1" style="stop-color:#1A0F91"/>
					</linearGradient>
					<path class="st65" d="M752.7,780c-0.1,0.1-0.1,0.2-0.2,0.3l-69.7,150.3c-1.7,3.7-0.1,8.1,3.6,9.8c3.7,1.7,8.2,0.1,9.8-3.6
						l69.7-150.3c1.7-3.7,0.1-8.1-3.6-9.8C758.7,775.1,754.5,776.5,752.7,780z"/>
				</g>
			</g>
			<g>
				<path class="st7" d="M596.2,950.6c-0.7,3-69.9,262.3-87.4,328.1c-2,7.6,3.6,15,11.4,15l0,0c5.4,0,10.1-3.7,11.4-9l76.8-311.2
					L596.2,950.6z"/>
				<path class="st7" d="M634,950.6c0.7,3,69.9,262.3,87.4,328.1c2,7.6-3.6,15-11.4,15l0,0c-5.4,0-10.1-3.7-11.4-9l-76.8-311.2
					L634,950.6z"/>
				<path class="st7" d="M636.9,942.1h-43.1v34.6c0,5,4,9,8.9,9h5.9v77.7c0,3.8,3,6.8,6.7,6.8l0,0c3.7,0,6.7-3.1,6.7-6.8v-77.7h3
					c6.5,0,11.8-5.3,11.8-11.9V942.1z"/>
				<linearGradient id="SVGID_58_" gradientUnits="userSpaceOnUse" x1="611.3255" y1="932.2891" x2="580.7706" y2="1158.2091">
					<stop  offset="0" style="stop-color:#020039"/>
					<stop  offset="1" style="stop-color:#090056"/>
				</linearGradient>
				<path class="st66" d="M488,933.8h240.5c3.4,0,6.3,2.3,7.1,5.6l3.4,13.2c1.2,4.7-2.3,9.3-7.2,9.3L485,960.5
					c-4.8,0-8.3-4.6-7.1-9.3l2.9-11.7C481.7,936.2,484.6,933.8,488,933.8z"/>
			</g>
		</g>
		<g>
			<g>
				<path class="st1" d="M364.8,314.2c0,0,0.2-1.3,0.8-3.6c0.2-1,1.2-1.7,2.3-1.4c0.6,0.1,1.1,0.6,1.4,1.2c1-0.7,2.2-1.6,3.6-2.5
					c0.9-0.6,2-0.4,2.6,0.5c0.6,0.9,0.4,2-0.5,2.6c-3.2,2.2-5.4,3.9-6.5,4.7c-0.3,0.2-0.5,0.4-0.6,0.5l-3.8,2.7L364.8,314.2z
					 M368.6,298.4c1.1-4,2.2-8,3.5-12c0.3-1,1.4-1.6,2.4-1.3c1,0.3,1.6,1.4,1.3,2.4c-1.2,4-2.4,8-3.4,11.9c-0.3,1-1.3,1.6-2.3,1.3
					c-0.2,0-0.3-0.1-0.5-0.2C368.7,300.1,368.4,299.2,368.6,298.4z M382.8,303.8c-0.5-0.9-0.2-2.1,0.8-2.6c3.8-2.1,7.6-3.9,11.4-5.5
					c1-0.4,2.1,0.1,2.5,1c0.4,1-0.1,2.1-1,2.5c-3.6,1.5-7.4,3.3-11,5.3c-0.6,0.3-1.3,0.3-1.9,0C383.2,304.4,383,304.1,382.8,303.8z
					 M405.6,293.9c-0.3-1,0.3-2.1,1.3-2.3c4.2-1.2,8.4-2,12.5-2.5c1-0.1,2,0.6,2.1,1.7c0.1,1-0.6,2-1.7,2.1
					c-3.9,0.5-7.9,1.3-11.9,2.4c-0.5,0.1-1.1,0.1-1.5-0.2C406,294.8,405.7,294.4,405.6,293.9z M376,274.5c1.4-3.9,2.8-7.9,4.3-11.7
					c0.4-1,1.5-1.5,2.5-1.1c1,0.4,1.5,1.5,1.1,2.5c-1.5,3.8-2.9,7.7-4.3,11.6c-0.3,1-1.4,1.5-2.4,1.2c-0.1,0-0.2-0.1-0.4-0.2
					C376,276.3,375.7,275.3,376,274.5z M430.1,290.5c0.1-1,1-1.8,2-1.8c3.1,0.2,6.1,0.7,9,1.4c1.2,0.3,2.3,0.5,3.4,0.7
					c1,0.2,1.7,1.2,1.5,2.2c-0.2,1-1.2,1.7-2.2,1.5c-1.2-0.2-2.3-0.5-3.6-0.8c-2.7-0.6-5.6-1.1-8.4-1.3c-0.3,0-0.6-0.1-0.8-0.3
					C430.4,291.9,430,291.3,430.1,290.5z M474,312c0.3-0.8,1.1-1.2,1.9-1.1c1.8-1.4,4-2.4,6.8-3.1c1-0.3,2,0.4,2.3,1.4
					c0.3,1-0.4,2-1.4,2.3c-3.5,0.9-5.7,2.2-7.3,4.5l-3.3-1.9L474,312z M454.6,294.1c0-1,0.9-1.9,2-1.8c4.3,0.1,8.3-0.3,11.8-1.1
					c1-0.2,2,0.4,2.3,1.4c0.2,1-0.4,2-1.4,2.3c-3.9,0.9-8.2,1.3-12.8,1.2c-0.3,0-0.7-0.1-0.9-0.3C455,295.4,454.6,294.8,454.6,294.1
					z M385.1,251.2c1.7-3.8,3.4-7.7,5.2-11.4c0.5-0.9,1.6-1.3,2.5-0.9c0.9,0.5,1.3,1.6,0.9,2.5c-1.8,3.6-3.5,7.4-5.2,11.2
					c-0.4,1-1.5,1.4-2.5,1c-0.1,0-0.2-0.1-0.2-0.1C385,253.1,384.7,252.1,385.1,251.2z M479.1,300.7c1.9-4.4,3.6-8.2,4.9-11.4
					c0.4-1,1.5-1.4,2.5-1c1,0.4,1.4,1.5,1,2.5c-1.3,3.2-3,7.1-4.9,11.5c-0.4,1-1.5,1.4-2.5,1c-0.1,0-0.1-0.1-0.2-0.1
					C479,302.6,478.7,301.5,479.1,300.7z M493.5,308.1c-0.1-1,0.6-2,1.7-2.1c3.6-0.4,7.6-0.9,12.1-1.9c1-0.2,2,0.5,2.2,1.5
					c0.2,1-0.5,2-1.5,2.2c-4.6,0.9-8.7,1.5-12.4,1.9c-0.4,0.1-0.9,0-1.2-0.3C493.9,309.2,493.6,308.7,493.5,308.1z M478.5,289
					c-0.6-0.8-0.4-2,0.4-2.7c3.3-2.4,5.3-5,6.7-6.8c0.5-0.7,1-1.3,1.3-1.6c0.2-0.2,0.3-0.3,0.5-0.5c0.8-0.7,1.9-0.5,2.6,0.3
					c0.7,0.8,0.5,2.1-0.3,2.8c-0.3,0.3-0.6,0.8-1.1,1.3c-1.4,1.8-3.7,4.8-7.4,7.5c-0.6,0.5-1.5,0.5-2.1,0.1
					C478.9,289.4,478.7,289.2,478.5,289z M396,228.7c1.8-3.3,3.6-6.5,5.5-9.6l0.7-1.2c0.5-0.9,1.7-1.2,2.6-0.6c0,0,0,0,0,0
					c0.9,0.5,1.2,1.7,0.6,2.6l-0.7,1.2c-1.8,3.1-3.7,6.2-5.4,9.5c-0.5,0.9-1.7,1.3-2.6,0.8c0,0,0,0-0.1,0
					C395.8,230.7,395.5,229.6,396,228.7z M517.9,303.5c-0.3-1,0.2-2.1,1.2-2.4c3.8-1.2,7.6-2.7,11.4-4.3c1-0.4,2.1,0,2.5,1
					c0.4,1,0,2.1-1,2.5c-3.9,1.7-7.9,3.2-11.8,4.5c-0.5,0.2-1.1,0.1-1.6-0.2C518.3,304.3,518,303.9,517.9,303.5z M540.7,293.9
					c-0.5-0.9-0.2-2.1,0.8-2.6c0.8-0.4,1.5-0.8,2.3-1.3c2.8-1.6,5.5-3.3,8-5.2c0.8-0.6,2-0.4,2.7,0.4c0.6,0.8,0.4,2-0.4,2.7
					c-2.6,1.9-5.5,3.8-8.4,5.4c-0.8,0.5-1.6,0.9-2.4,1.3c-0.6,0.3-1.3,0.3-1.9,0C541.2,294.4,540.9,294.2,540.7,293.9z M409.6,210
					c-0.9-0.6-1.1-1.8-0.5-2.6c2.4-3.5,4.9-6.9,7.4-10.1c0.6-0.8,1.8-1,2.7-0.3c0.8,0.6,1,1.8,0.3,2.7c-2.5,3.2-4.9,6.5-7.3,9.9
					c-0.6,0.8-1.7,1.1-2.5,0.5C409.6,210,409.6,210,409.6,210z M561,279.7c-0.7-0.7-0.7-1.9,0-2.7c2.8-2.8,5.5-5.9,7.9-9.2
					c0.6-0.8,1.8-1,2.7-0.4c0.8,0.6,1,1.8,0.4,2.7c-2.5,3.4-5.3,6.6-8.3,9.6c-0.6,0.6-1.6,0.7-2.3,0.3
					C561.3,279.9,561.1,279.8,561,279.7z M424.7,190.3c-0.8-0.7-0.8-1.9-0.1-2.7c2.8-3.1,5.8-6.2,8.8-9c0.8-0.7,2-0.7,2.7,0.1
					c0.7,0.8,0.7,2-0.1,2.7c-2.9,2.8-5.8,5.7-8.6,8.8c-0.6,0.7-1.6,0.8-2.4,0.4C424.9,190.5,424.8,190.4,424.7,190.3z M575.4,257.5
					c1.9-3.5,3.6-7.3,5-11.1c0.4-1,1.5-1.5,2.4-1.1c1,0.4,1.5,1.5,1.1,2.4c-1.5,4-3.2,7.9-5.2,11.6c-0.5,0.9-1.6,1.3-2.6,0.8
					c0,0-0.1,0-0.1,0C575.3,259.5,574.9,258.4,575.4,257.5z M442.6,173.1c-0.7-0.8-0.5-2,0.3-2.7c3.3-2.6,6.8-5.1,10.2-7.4
					c0.9-0.6,2.1-0.3,2.6,0.6c0.6,0.9,0.3,2.1-0.6,2.6c-3.4,2.2-6.7,4.6-9.9,7.1c-0.6,0.5-1.5,0.5-2.2,0.1
					C442.9,173.4,442.7,173.3,442.6,173.1z M583.8,234.8c1.3-6.2,1.5-10.4,1.5-11.3l-1.2-5.4c-0.2-1,0.4-2,1.5-2.2
					c1-0.2,2,0.4,2.3,1.5l1.1,5.3l0,0c0.6,2.7-0.8,10.4-1.4,13.1c-0.2,1-1.2,1.7-2.3,1.5c-0.2,0-0.4-0.1-0.6-0.2
					C584,236.4,583.6,235.6,583.8,234.8z M463.2,159.3c-0.5-0.9-0.1-2.1,0.8-2.6c3.8-1.9,7.6-3.7,11.5-5.1c1-0.4,2.1,0.1,2.5,1.1
					c0.4,1-0.1,2.1-1.1,2.4c-3.8,1.4-7.5,3.1-11.1,5c-0.6,0.3-1.3,0.3-1.8-0.1C463.6,159.9,463.4,159.6,463.2,159.3z M486.2,150.1
					c-0.3-1,0.3-2.1,1.4-2.3c4-1,8.2-1.9,12.4-2.5c1-0.2,2,0.6,2.2,1.6c0.2,1-0.6,2-1.6,2.2c-4,0.6-8.1,1.4-12,2.4
					c-0.5,0.1-1,0-1.5-0.2C486.6,151,486.3,150.6,486.2,150.1z M581.5,205.9l-2.6-12.2c-0.2-1,0.4-2,1.5-2.2c1-0.2,2,0.4,2.3,1.5
					l2.6,12.1c0.2,1-0.4,2-1.5,2.3c-0.5,0.1-1,0-1.4-0.2C581.9,206.8,581.6,206.4,581.5,205.9z M510.6,146.1c0-1,0.8-1.9,1.8-2
					c4.1-0.2,8.3-0.1,12.6,0.1c1,0.1,1.9,0.9,1.8,2c-0.1,1-1,1.8-2,1.8c-4.1-0.2-8.2-0.3-12.2-0.1c-0.4,0-0.8-0.1-1.1-0.3
					C511,147.3,510.7,146.7,510.6,146.1z M576.3,181.6l-2.6-12.2c-0.2-1,0.4-2,1.5-2.2c1-0.2,2,0.4,2.3,1.5l2.6,12.2
					c0.2,1-0.4,2-1.5,2.2c-0.5,0.1-1,0-1.4-0.2C576.8,182.5,576.4,182.1,576.3,181.6z M535.4,147c0.1-1,1.1-1.8,2.2-1.6
					c4,0.6,8.2,1.4,12.3,2.3c1,0.2,1.7,1.2,1.4,2.3c-0.2,1-1.2,1.7-2.3,1.4c-4.1-0.9-8.1-1.7-12.1-2.2c-0.3,0-0.5-0.1-0.7-0.3
					C535.7,148.6,535.3,147.8,535.4,147z M559.7,152.2c0.3-1,1.4-1.6,2.4-1.3c3.8,1.1,7.7,2.5,11.6,3.9l1,0.4l0.3,1.3
					c0.2,1-0.4,2-1.5,2.3c-0.7,0.2-1.4-0.1-1.9-0.6c-3.6-1.3-7.1-2.5-10.6-3.5c-0.2,0-0.3-0.1-0.4-0.2
					C559.8,153.9,559.4,153,559.7,152.2z"/>
			</g>
			
				<linearGradient id="SVGID_59_" gradientUnits="userSpaceOnUse" x1="-622.8481" y1="-4140.021" x2="-607.0612" y2="-4295.6348" gradientTransform="matrix(-0.3341 -0.9425 -0.9425 0.3341 -3684.2607 1056.3062)">
				<stop  offset="0" style="stop-color:#FF928E"/>
				<stop  offset="1" style="stop-color:#FE7062"/>
			</linearGradient>
			<path class="st67" d="M578.4,196.7c0,0-6.9,54.6-47.6,53.9c-40.6-0.8-81.4-11.6-95.3,1.6c0,0,33.6-102.3,136.7-73.9L578.4,196.7z
				"/>
			
				<linearGradient id="SVGID_60_" gradientUnits="userSpaceOnUse" x1="-757.4021" y1="-4229.2988" x2="-697.6369" y2="-4351.084" gradientTransform="matrix(-0.3341 -0.9425 -0.9425 0.3341 -3684.2607 1056.3062)">
				<stop  offset="0" style="stop-color:#FEB3B1"/>
				<stop  offset="1" style="stop-color:#FF928E"/>
			</linearGradient>
			<path class="st68" d="M692.4,217.5c0,0,12.4,52.6-1.3,64.8c-13,11.6-131.2,43.5-142.7,46.6c-0.5,0.1-1-0.1-1.2-0.7l0,0
				c-1.5-4.2-0.9-8.8,1.6-12.4c12.1-17.7,48.5-70.1,64.6-82.4C633,218.5,692.4,217.5,692.4,217.5z"/>
			<path class="st69" d="M588.4,310.5c0.3,0.2,0.6,0.2,1,0.1c0.6-0.2,65-18.8,92.4-27.9c4.9-1.6,8.4-6,8.8-11.1
				c0.9-9.8,1.7-24.6,0-39.3c-0.1-0.7-0.7-1.2-1.4-1.1c-0.7,0.1-1.2,0.7-1.1,1.4c1.8,15.2,0.8,30.8,0,38.7c-0.4,4.1-3.2,7.6-7.2,8.9
				c-27.4,9.1-91.7,27.7-92.4,27.8c-0.7,0.2-1,0.9-0.8,1.5C588,310.1,588.2,310.3,588.4,310.5z"/>
			
				<linearGradient id="SVGID_61_" gradientUnits="userSpaceOnUse" x1="-445.1809" y1="-4223.6045" x2="-538.2101" y2="-4380.9087" gradientTransform="matrix(-0.3341 -0.9425 -0.9425 0.3341 -3684.2607 1056.3062)">
				<stop  offset="0" style="stop-color:#FEB3B1"/>
				<stop  offset="1" style="stop-color:#FF928E"/>
			</linearGradient>
			<path class="st70" d="M650.5,99.2c0,0-23.5-48.7-41.8-49.5c-17.4-0.8-129.3,48.8-140.1,53.7c-0.5,0.2-0.7,0.8-0.5,1.3l0,0
				c1.5,4.2,4.8,7.4,9.1,8.7c20.5,6.1,81.8,23.9,102.1,23.3C603.7,135.9,650.5,99.2,650.5,99.2z"/>
			<path class="st69" d="M511.7,94c0.3,0.2,0.7,0.2,1.1,0.1c0.6-0.3,62.3-26.4,89.3-36.5c3.9-1.5,8.3-0.5,11.2,2.4
				c5.6,5.7,16.2,17.2,24.4,30.1c0.4,0.6,1.1,0.8,1.7,0.4c0.6-0.4,0.8-1.1,0.4-1.7c-8.3-13.1-19-24.8-24.7-30.5
				c-3.6-3.7-9-4.8-13.8-3c-27,10.2-88.7,36.3-89.4,36.6c-0.6,0.3-0.9,1-0.7,1.6C511.3,93.6,511.4,93.8,511.7,94z"/>
			
				<linearGradient id="SVGID_62_" gradientUnits="userSpaceOnUse" x1="-2896.5002" y1="-1409.3708" x2="-2826.9358" y2="-708.7643" gradientTransform="matrix(-0.8865 -0.4627 -0.4627 0.8865 -2462.1292 -12.4725)">
				<stop  offset="0" style="stop-color:#4F52FF"/>
				<stop  offset="1" style="stop-color:#4042E2"/>
			</linearGradient>
			<path class="st71" d="M863.3,156.2c-20.8,16-46.1,31-76.5,41.8c-94.1,33.7-169.1,42.1-190.5,44c-3.9,0.3-7.6-1.5-9.7-4.8
				c-16.9-25.5-27.1-53.4-30.4-83.8c-0.6-5.7,2-11.3,6.8-14.5c20.8-13.8,82.9-52.4,173.1-84.1c30.1-10.6,59-14.9,85.1-15.7
				C850.8,81.2,859.8,128.9,863.3,156.2z"/>
			
				<linearGradient id="SVGID_63_" gradientUnits="userSpaceOnUse" x1="-562.2899" y1="-4664.9336" x2="-688.5861" y2="-4482.2554" gradientTransform="matrix(-0.3341 -0.9425 -0.9425 0.3341 -3684.2607 1056.3062)">
				<stop  offset="0" style="stop-color:#FEB3B1"/>
				<stop  offset="1" style="stop-color:#FF928E"/>
			</linearGradient>
			<path class="st72" d="M821.2,39.2c57.7-1.6,101.9,14.6,116.4,20.7c2.8,1.2,4,4.5,2.6,7.3c-7.4,13.8-31.4,54-76.8,89
				C859.8,128.9,850.8,81.2,821.2,39.2z"/>
			<g>
				
					<linearGradient id="SVGID_64_" gradientUnits="userSpaceOnUse" x1="-3353.9319" y1="-577.5939" x2="-3117.3389" y2="-596.8291" gradientTransform="matrix(-0.9515 -0.3075 -0.3075 0.9515 -2329.051 -244.386)">
					<stop  offset="0" style="stop-color:#4F52FF"/>
					<stop  offset="1" style="stop-color:#4042E2"/>
				</linearGradient>
				<path class="st73" d="M750.9,76.9c-24.4,8.7-36.7,36.9-27.4,63.1c9.3,26.2,36.6,40.4,61,31.8c24.4-8.7,36.7-36.9,27.4-63.1
					C802.6,82.5,775.3,68.2,750.9,76.9z"/>
				<path class="st4" d="M755,84.8c-19.4,6.9-29.2,29.4-21.8,50.3c7.4,20.9,29.2,32.2,48.6,25.3c19.4-6.9,29.2-29.4,21.8-50.3
					C796.2,89.2,774.5,77.9,755,84.8z"/>
				<path class="st69" d="M784.4,146.7c0.4,0.3,1,0.2,1.4-0.1c10.7-7.9,14.9-22.5,10.3-35.6c-1.2-3.3-2.8-6.3-4.9-9.1
					c-0.4-0.5-1.2-0.6-1.7-0.2c-0.5,0.4-0.6,1.2-0.2,1.7c1.9,2.5,3.5,5.3,4.5,8.4c4.3,12,0.4,25.5-9.4,32.7
					c-0.6,0.4-0.7,1.2-0.3,1.7C784.1,146.5,784.2,146.6,784.4,146.7z"/>
			</g>
			<g>
				
					<linearGradient id="SVGID_65_" gradientUnits="userSpaceOnUse" x1="-3348.8142" y1="-514.6572" x2="-3112.2217" y2="-533.8923" gradientTransform="matrix(-0.9515 -0.3075 -0.3075 0.9515 -2329.051 -244.386)">
					<stop  offset="0" style="stop-color:#4F52FF"/>
					<stop  offset="1" style="stop-color:#4042E2"/>
				</linearGradient>
				<path class="st74" d="M667.8,124.5c-16.1,5.7-24.2,24.4-18.1,41.7c6.1,17.3,24.2,26.7,40.3,21c16.1-5.7,24.2-24.4,18.1-41.7
					C701.9,128.1,683.9,118.8,667.8,124.5z"/>
				<path class="st4" d="M670.5,129.7c-12.8,4.6-19.3,19.4-14.4,33.2c4.9,13.8,19.3,21.3,32.1,16.7c12.8-4.6,19.3-19.4,14.4-33.2
					C697.7,132.6,683.4,125.1,670.5,129.7z"/>
				<path class="st69" d="M689.7,170.9c0.4,0.3,1,0.2,1.4-0.1c7.2-5.3,10-15.2,6.9-24c-0.8-2.2-1.9-4.3-3.3-6.1
					c-0.4-0.5-1.2-0.6-1.7-0.2c-0.5,0.4-0.6,1.2-0.2,1.7c1.3,1.6,2.2,3.4,2.9,5.4c2.8,7.8,0.3,16.5-6.1,21.1
					c-0.6,0.4-0.7,1.2-0.3,1.7C689.4,170.8,689.5,170.9,689.7,170.9z"/>
			</g>
		</g>
	</g>
</g>
</svg>
